<mxfile host="Electron" agent="Mozilla/5.0 (Windows NT 10.0; Win64; x64) AppleWebKit/537.36 (KHTML, like Gecko) draw.io/26.0.9 Chrome/128.0.6613.186 Electron/32.2.5 Safari/537.36" version="26.0.9" pages="4">
  <diagram name="merge-sort-demo" id="RKlwTDB1rN8mqarC7UOR">
    <mxGraphModel dx="1037" dy="751" grid="1" gridSize="10" guides="1" tooltips="1" connect="1" arrows="1" fold="1" page="1" pageScale="1" pageWidth="850" pageHeight="1100" math="0" shadow="0">
      <root>
        <mxCell id="29BRqAdNC4ewfQVRm0Ns-0" />
        <mxCell id="29BRqAdNC4ewfQVRm0Ns-1" parent="29BRqAdNC4ewfQVRm0Ns-0" />
        <mxCell id="Nl-SWRv9UvR93guHBhI6-0" value="1" style="rounded=1;whiteSpace=wrap;html=1;absoluteArcSize=1;arcSize=30;strokeWidth=2;fontFamily=consolas;fontSize=20;strokeColor=#99CCFF;fontColor=#FFFFFF;fillColor=#0099CC;" parent="29BRqAdNC4ewfQVRm0Ns-1" vertex="1">
          <mxGeometry x="213.19" y="57.5" width="40" height="40" as="geometry" />
        </mxCell>
        <mxCell id="Nl-SWRv9UvR93guHBhI6-1" value="0" style="rounded=1;whiteSpace=wrap;html=1;absoluteArcSize=1;arcSize=14;strokeWidth=2;fontFamily=Tahoma;fontSize=20;strokeColor=none;fontColor=#FF748C;fillColor=none;" parent="29BRqAdNC4ewfQVRm0Ns-1" vertex="1">
          <mxGeometry x="219" y="30" width="28.38" height="27.5" as="geometry" />
        </mxCell>
        <mxCell id="Nl-SWRv9UvR93guHBhI6-2" value="7" style="rounded=1;whiteSpace=wrap;html=1;absoluteArcSize=1;arcSize=30;strokeWidth=2;fontFamily=consolas;fontSize=20;strokeColor=#99CCFF;fontColor=#FFFFFF;fillColor=#0099CC;" parent="29BRqAdNC4ewfQVRm0Ns-1" vertex="1">
          <mxGeometry x="253.19" y="57.5" width="40" height="40" as="geometry" />
        </mxCell>
        <mxCell id="Nl-SWRv9UvR93guHBhI6-3" value="4" style="rounded=1;whiteSpace=wrap;html=1;absoluteArcSize=1;arcSize=30;strokeWidth=2;fontFamily=consolas;fontSize=20;strokeColor=#99CCFF;fontColor=#FFFFFF;fillColor=#0099CC;" parent="29BRqAdNC4ewfQVRm0Ns-1" vertex="1">
          <mxGeometry x="293.19" y="57.5" width="40" height="40" as="geometry" />
        </mxCell>
        <mxCell id="Nl-SWRv9UvR93guHBhI6-4" value="0" style="rounded=1;whiteSpace=wrap;html=1;absoluteArcSize=1;arcSize=30;strokeWidth=2;fontFamily=consolas;fontSize=20;strokeColor=#99CCFF;fontColor=#FFFFFF;fillColor=#0099CC;" parent="29BRqAdNC4ewfQVRm0Ns-1" vertex="1">
          <mxGeometry x="333.19" y="57.5" width="40" height="40" as="geometry" />
        </mxCell>
        <mxCell id="Nl-SWRv9UvR93guHBhI6-5" value="9" style="rounded=1;whiteSpace=wrap;html=1;absoluteArcSize=1;arcSize=30;strokeWidth=2;fontFamily=consolas;fontSize=20;strokeColor=#99CCFF;fontColor=#FFFFFF;fillColor=#0099CC;" parent="29BRqAdNC4ewfQVRm0Ns-1" vertex="1">
          <mxGeometry x="373.19" y="57.5" width="40" height="40" as="geometry" />
        </mxCell>
        <mxCell id="Nl-SWRv9UvR93guHBhI6-6" value="4" style="rounded=1;whiteSpace=wrap;html=1;absoluteArcSize=1;arcSize=30;strokeWidth=2;fontFamily=consolas;fontSize=20;strokeColor=#99CCFF;fontColor=#FFFFFF;fillColor=#0099CC;" parent="29BRqAdNC4ewfQVRm0Ns-1" vertex="1">
          <mxGeometry x="413.19" y="57.5" width="40" height="40" as="geometry" />
        </mxCell>
        <mxCell id="Nl-SWRv9UvR93guHBhI6-7" value="8" style="rounded=1;whiteSpace=wrap;html=1;absoluteArcSize=1;arcSize=30;strokeWidth=2;fontFamily=consolas;fontSize=20;strokeColor=#99CCFF;fontColor=#FFFFFF;fillColor=#0099CC;" parent="29BRqAdNC4ewfQVRm0Ns-1" vertex="1">
          <mxGeometry x="453.19" y="57.5" width="40" height="40" as="geometry" />
        </mxCell>
        <mxCell id="Nl-SWRv9UvR93guHBhI6-8" value="1" style="rounded=1;whiteSpace=wrap;html=1;absoluteArcSize=1;arcSize=14;strokeWidth=2;fontFamily=Tahoma;fontSize=20;strokeColor=none;fontColor=#FF748C;fillColor=none;" parent="29BRqAdNC4ewfQVRm0Ns-1" vertex="1">
          <mxGeometry x="257.81" y="30" width="28.38" height="27.5" as="geometry" />
        </mxCell>
        <mxCell id="Nl-SWRv9UvR93guHBhI6-9" value="2" style="rounded=1;whiteSpace=wrap;html=1;absoluteArcSize=1;arcSize=14;strokeWidth=2;fontFamily=Tahoma;fontSize=20;strokeColor=none;fontColor=#FF748C;fillColor=none;" parent="29BRqAdNC4ewfQVRm0Ns-1" vertex="1">
          <mxGeometry x="299" y="30" width="28.38" height="27.5" as="geometry" />
        </mxCell>
        <mxCell id="Nl-SWRv9UvR93guHBhI6-10" value="3" style="rounded=1;whiteSpace=wrap;html=1;absoluteArcSize=1;arcSize=14;strokeWidth=2;fontFamily=Tahoma;fontSize=20;strokeColor=none;fontColor=#FF748C;fillColor=none;" parent="29BRqAdNC4ewfQVRm0Ns-1" vertex="1">
          <mxGeometry x="339" y="30" width="28.38" height="27.5" as="geometry" />
        </mxCell>
        <mxCell id="Nl-SWRv9UvR93guHBhI6-11" value="4" style="rounded=1;whiteSpace=wrap;html=1;absoluteArcSize=1;arcSize=14;strokeWidth=2;fontFamily=Tahoma;fontSize=20;strokeColor=none;fontColor=#FF748C;fillColor=none;" parent="29BRqAdNC4ewfQVRm0Ns-1" vertex="1">
          <mxGeometry x="379" y="30" width="28.38" height="27.5" as="geometry" />
        </mxCell>
        <mxCell id="Nl-SWRv9UvR93guHBhI6-12" value="5" style="rounded=1;whiteSpace=wrap;html=1;absoluteArcSize=1;arcSize=14;strokeWidth=2;fontFamily=Tahoma;fontSize=20;strokeColor=none;fontColor=#FF748C;fillColor=none;" parent="29BRqAdNC4ewfQVRm0Ns-1" vertex="1">
          <mxGeometry x="419" y="30" width="28.38" height="27.5" as="geometry" />
        </mxCell>
        <mxCell id="Nl-SWRv9UvR93guHBhI6-13" value="6" style="rounded=1;whiteSpace=wrap;html=1;absoluteArcSize=1;arcSize=14;strokeWidth=2;fontFamily=Tahoma;fontSize=20;strokeColor=none;fontColor=#FF748C;fillColor=none;" parent="29BRqAdNC4ewfQVRm0Ns-1" vertex="1">
          <mxGeometry x="459" y="30" width="28.38" height="27.5" as="geometry" />
        </mxCell>
        <mxCell id="8HJ-TIYc04FHmpN_Z_e9-0" value="" style="endArrow=oval;html=1;rounded=1;strokeWidth=3;strokeColor=#FFD966;startArrow=classic;startFill=1;arcSize=36;endFill=1;fontFamily=Tahoma;" parent="29BRqAdNC4ewfQVRm0Ns-1" edge="1">
          <mxGeometry width="50" height="50" relative="1" as="geometry">
            <mxPoint x="314" y="140" as="sourcePoint" />
            <mxPoint x="354" y="110" as="targetPoint" />
          </mxGeometry>
        </mxCell>
        <mxCell id="8HJ-TIYc04FHmpN_Z_e9-1" value="" style="endArrow=oval;html=1;rounded=1;strokeWidth=3;strokeColor=#FFD966;startArrow=classic;startFill=1;arcSize=36;endFill=1;fontFamily=Tahoma;" parent="29BRqAdNC4ewfQVRm0Ns-1" edge="1">
          <mxGeometry width="50" height="50" relative="1" as="geometry">
            <mxPoint x="394" y="140" as="sourcePoint" />
            <mxPoint x="354" y="110" as="targetPoint" />
          </mxGeometry>
        </mxCell>
        <mxCell id="8HJ-TIYc04FHmpN_Z_e9-2" value="1" style="rounded=1;whiteSpace=wrap;html=1;absoluteArcSize=1;arcSize=30;strokeWidth=2;fontFamily=consolas;fontSize=20;strokeColor=#99CCFF;fontColor=#FFFFFF;fillColor=#0099CC;" parent="29BRqAdNC4ewfQVRm0Ns-1" vertex="1">
          <mxGeometry x="144" y="150" width="40" height="40" as="geometry" />
        </mxCell>
        <mxCell id="8HJ-TIYc04FHmpN_Z_e9-3" value="7" style="rounded=1;whiteSpace=wrap;html=1;absoluteArcSize=1;arcSize=30;strokeWidth=2;fontFamily=consolas;fontSize=20;strokeColor=#99CCFF;fontColor=#FFFFFF;fillColor=#0099CC;" parent="29BRqAdNC4ewfQVRm0Ns-1" vertex="1">
          <mxGeometry x="184" y="150" width="40" height="40" as="geometry" />
        </mxCell>
        <mxCell id="8HJ-TIYc04FHmpN_Z_e9-4" value="4" style="rounded=1;whiteSpace=wrap;html=1;absoluteArcSize=1;arcSize=30;strokeWidth=2;fontFamily=consolas;fontSize=20;strokeColor=#99CCFF;fontColor=#FFFFFF;fillColor=#0099CC;" parent="29BRqAdNC4ewfQVRm0Ns-1" vertex="1">
          <mxGeometry x="224" y="150" width="40" height="40" as="geometry" />
        </mxCell>
        <mxCell id="8HJ-TIYc04FHmpN_Z_e9-5" value="0" style="rounded=1;whiteSpace=wrap;html=1;absoluteArcSize=1;arcSize=30;strokeWidth=2;fontFamily=consolas;fontSize=20;strokeColor=#99CCFF;fontColor=#FFFFFF;fillColor=#0099CC;" parent="29BRqAdNC4ewfQVRm0Ns-1" vertex="1">
          <mxGeometry x="264" y="150" width="40" height="40" as="geometry" />
        </mxCell>
        <mxCell id="8HJ-TIYc04FHmpN_Z_e9-6" value="9" style="rounded=1;whiteSpace=wrap;html=1;absoluteArcSize=1;arcSize=30;strokeWidth=2;fontFamily=consolas;fontSize=20;strokeColor=#99CCFF;fontColor=#FFFFFF;fillColor=#0099CC;" parent="29BRqAdNC4ewfQVRm0Ns-1" vertex="1">
          <mxGeometry x="404" y="150" width="40" height="40" as="geometry" />
        </mxCell>
        <mxCell id="8HJ-TIYc04FHmpN_Z_e9-7" value="4" style="rounded=1;whiteSpace=wrap;html=1;absoluteArcSize=1;arcSize=30;strokeWidth=2;fontFamily=consolas;fontSize=20;strokeColor=#99CCFF;fontColor=#FFFFFF;fillColor=#0099CC;" parent="29BRqAdNC4ewfQVRm0Ns-1" vertex="1">
          <mxGeometry x="444" y="150" width="40" height="40" as="geometry" />
        </mxCell>
        <mxCell id="8HJ-TIYc04FHmpN_Z_e9-8" value="8" style="rounded=1;whiteSpace=wrap;html=1;absoluteArcSize=1;arcSize=30;strokeWidth=2;fontFamily=consolas;fontSize=20;strokeColor=#99CCFF;fontColor=#FFFFFF;fillColor=#0099CC;" parent="29BRqAdNC4ewfQVRm0Ns-1" vertex="1">
          <mxGeometry x="484" y="150" width="40" height="40" as="geometry" />
        </mxCell>
        <mxCell id="8HJ-TIYc04FHmpN_Z_e9-9" value="1" style="rounded=1;whiteSpace=wrap;html=1;absoluteArcSize=1;arcSize=30;strokeWidth=2;fontFamily=consolas;fontSize=20;strokeColor=#99CCFF;fontColor=#FFFFFF;fillColor=#0099CC;" parent="29BRqAdNC4ewfQVRm0Ns-1" vertex="1">
          <mxGeometry x="121" y="240" width="40" height="40" as="geometry" />
        </mxCell>
        <mxCell id="8HJ-TIYc04FHmpN_Z_e9-10" value="7" style="rounded=1;whiteSpace=wrap;html=1;absoluteArcSize=1;arcSize=30;strokeWidth=2;fontFamily=consolas;fontSize=20;strokeColor=#99CCFF;fontColor=#FFFFFF;fillColor=#0099CC;" parent="29BRqAdNC4ewfQVRm0Ns-1" vertex="1">
          <mxGeometry x="161" y="240" width="40" height="40" as="geometry" />
        </mxCell>
        <mxCell id="8HJ-TIYc04FHmpN_Z_e9-11" value="4" style="rounded=1;whiteSpace=wrap;html=1;absoluteArcSize=1;arcSize=30;strokeWidth=2;fontFamily=consolas;fontSize=20;strokeColor=#99CCFF;fontColor=#FFFFFF;fillColor=#0099CC;" parent="29BRqAdNC4ewfQVRm0Ns-1" vertex="1">
          <mxGeometry x="224" y="240" width="40" height="40" as="geometry" />
        </mxCell>
        <mxCell id="8HJ-TIYc04FHmpN_Z_e9-12" value="0" style="rounded=1;whiteSpace=wrap;html=1;absoluteArcSize=1;arcSize=30;strokeWidth=2;fontFamily=consolas;fontSize=20;strokeColor=#99CCFF;fontColor=#FFFFFF;fillColor=#0099CC;" parent="29BRqAdNC4ewfQVRm0Ns-1" vertex="1">
          <mxGeometry x="264" y="240" width="40" height="40" as="geometry" />
        </mxCell>
        <mxCell id="8HJ-TIYc04FHmpN_Z_e9-15" value="" style="endArrow=oval;html=1;rounded=1;strokeWidth=3;strokeColor=#FFD966;startArrow=classic;startFill=1;arcSize=36;endFill=1;fontFamily=Tahoma;" parent="29BRqAdNC4ewfQVRm0Ns-1" edge="1">
          <mxGeometry width="50" height="50" relative="1" as="geometry">
            <mxPoint x="174" y="230" as="sourcePoint" />
            <mxPoint x="214" y="200" as="targetPoint" />
          </mxGeometry>
        </mxCell>
        <mxCell id="8HJ-TIYc04FHmpN_Z_e9-16" value="" style="endArrow=oval;html=1;rounded=1;strokeWidth=3;strokeColor=#FFD966;startArrow=classic;startFill=1;arcSize=36;endFill=1;fontColor=#FF8000;fontFamily=Tahoma;" parent="29BRqAdNC4ewfQVRm0Ns-1" edge="1">
          <mxGeometry width="50" height="50" relative="1" as="geometry">
            <mxPoint x="254" y="230" as="sourcePoint" />
            <mxPoint x="214" y="200" as="targetPoint" />
          </mxGeometry>
        </mxCell>
        <mxCell id="8HJ-TIYc04FHmpN_Z_e9-17" value="9" style="rounded=1;whiteSpace=wrap;html=1;absoluteArcSize=1;arcSize=30;strokeWidth=2;fontFamily=consolas;fontSize=20;strokeColor=#99CCFF;fontColor=#FFFFFF;fillColor=#0099CC;" parent="29BRqAdNC4ewfQVRm0Ns-1" vertex="1">
          <mxGeometry x="404" y="240" width="40" height="40" as="geometry" />
        </mxCell>
        <mxCell id="8HJ-TIYc04FHmpN_Z_e9-18" value="4" style="rounded=1;whiteSpace=wrap;html=1;absoluteArcSize=1;arcSize=30;strokeWidth=2;fontFamily=consolas;fontSize=20;strokeColor=#99CCFF;fontColor=#FFFFFF;fillColor=#0099CC;" parent="29BRqAdNC4ewfQVRm0Ns-1" vertex="1">
          <mxGeometry x="444" y="240" width="40" height="40" as="geometry" />
        </mxCell>
        <mxCell id="8HJ-TIYc04FHmpN_Z_e9-19" value="8" style="rounded=1;whiteSpace=wrap;html=1;absoluteArcSize=1;arcSize=30;strokeWidth=2;fontFamily=consolas;fontSize=20;strokeColor=#99CCFF;fontColor=#FFFFFF;fillColor=#0099CC;" parent="29BRqAdNC4ewfQVRm0Ns-1" vertex="1">
          <mxGeometry x="524" y="240" width="40" height="40" as="geometry" />
        </mxCell>
        <mxCell id="8HJ-TIYc04FHmpN_Z_e9-20" value="" style="endArrow=oval;html=1;rounded=1;strokeWidth=3;strokeColor=#FFD966;startArrow=classic;startFill=1;arcSize=36;endFill=1;fontFamily=Tahoma;" parent="29BRqAdNC4ewfQVRm0Ns-1" edge="1">
          <mxGeometry width="50" height="50" relative="1" as="geometry">
            <mxPoint x="120" y="320" as="sourcePoint" />
            <mxPoint x="160" y="290" as="targetPoint" />
          </mxGeometry>
        </mxCell>
        <mxCell id="8HJ-TIYc04FHmpN_Z_e9-21" value="" style="endArrow=oval;html=1;rounded=1;strokeWidth=3;strokeColor=#FFD966;startArrow=classic;startFill=1;arcSize=36;endFill=1;fontFamily=Tahoma;" parent="29BRqAdNC4ewfQVRm0Ns-1" edge="1">
          <mxGeometry width="50" height="50" relative="1" as="geometry">
            <mxPoint x="174" y="320" as="sourcePoint" />
            <mxPoint x="160" y="290" as="targetPoint" />
          </mxGeometry>
        </mxCell>
        <mxCell id="8HJ-TIYc04FHmpN_Z_e9-22" value="1" style="rounded=1;whiteSpace=wrap;html=1;absoluteArcSize=1;arcSize=30;strokeWidth=2;fontFamily=consolas;fontSize=20;strokeColor=#99CCFF;fontColor=#FFFFFF;fillColor=#0099CC;" parent="29BRqAdNC4ewfQVRm0Ns-1" vertex="1">
          <mxGeometry x="90" y="330" width="40" height="40" as="geometry" />
        </mxCell>
        <mxCell id="8HJ-TIYc04FHmpN_Z_e9-23" value="7" style="rounded=1;whiteSpace=wrap;html=1;absoluteArcSize=1;arcSize=30;strokeWidth=2;fontFamily=consolas;fontSize=20;strokeColor=#99CCFF;fontColor=#FFFFFF;fillColor=#0099CC;" parent="29BRqAdNC4ewfQVRm0Ns-1" vertex="1">
          <mxGeometry x="154.81" y="330" width="40" height="40" as="geometry" />
        </mxCell>
        <mxCell id="8HJ-TIYc04FHmpN_Z_e9-24" value="4" style="rounded=1;whiteSpace=wrap;html=1;absoluteArcSize=1;arcSize=30;strokeWidth=2;fontFamily=consolas;fontSize=20;strokeColor=#99CCFF;fontColor=#FFFFFF;fillColor=#0099CC;" parent="29BRqAdNC4ewfQVRm0Ns-1" vertex="1">
          <mxGeometry x="219.81" y="330" width="40" height="40" as="geometry" />
        </mxCell>
        <mxCell id="8HJ-TIYc04FHmpN_Z_e9-25" value="0" style="rounded=1;whiteSpace=wrap;html=1;absoluteArcSize=1;arcSize=30;strokeWidth=2;fontFamily=consolas;fontSize=20;strokeColor=#99CCFF;fontColor=#FFFFFF;fillColor=#0099CC;" parent="29BRqAdNC4ewfQVRm0Ns-1" vertex="1">
          <mxGeometry x="285.81" y="330" width="40" height="40" as="geometry" />
        </mxCell>
        <mxCell id="8HJ-TIYc04FHmpN_Z_e9-26" value="9" style="rounded=1;whiteSpace=wrap;html=1;absoluteArcSize=1;arcSize=30;strokeWidth=2;fontFamily=consolas;fontSize=20;strokeColor=#99CCFF;fontColor=#FFFFFF;fillColor=#0099CC;" parent="29BRqAdNC4ewfQVRm0Ns-1" vertex="1">
          <mxGeometry x="379.81" y="330" width="40" height="40" as="geometry" />
        </mxCell>
        <mxCell id="8HJ-TIYc04FHmpN_Z_e9-27" value="4" style="rounded=1;whiteSpace=wrap;html=1;absoluteArcSize=1;arcSize=30;strokeWidth=2;fontFamily=consolas;fontSize=20;strokeColor=#99CCFF;fontColor=#FFFFFF;fillColor=#0099CC;" parent="29BRqAdNC4ewfQVRm0Ns-1" vertex="1">
          <mxGeometry x="459" y="330" width="40" height="40" as="geometry" />
        </mxCell>
        <mxCell id="8HJ-TIYc04FHmpN_Z_e9-28" value="8" style="rounded=1;whiteSpace=wrap;html=1;absoluteArcSize=1;arcSize=30;strokeWidth=2;fontFamily=consolas;fontSize=20;strokeColor=#99CCFF;fontColor=#FFFFFF;fillColor=#0099CC;" parent="29BRqAdNC4ewfQVRm0Ns-1" vertex="1">
          <mxGeometry x="524" y="330" width="40" height="40" as="geometry" />
        </mxCell>
        <mxCell id="8HJ-TIYc04FHmpN_Z_e9-29" value="1" style="rounded=1;whiteSpace=wrap;html=1;absoluteArcSize=1;arcSize=30;strokeWidth=2;fontFamily=consolas;fontSize=20;strokeColor=#99CCFF;fontColor=#FFFFFF;fillColor=#0099CC;" parent="29BRqAdNC4ewfQVRm0Ns-1" vertex="1">
          <mxGeometry x="119" y="420" width="40" height="40" as="geometry" />
        </mxCell>
        <mxCell id="8HJ-TIYc04FHmpN_Z_e9-30" value="7" style="rounded=1;whiteSpace=wrap;html=1;absoluteArcSize=1;arcSize=30;strokeWidth=2;fontFamily=consolas;fontSize=20;strokeColor=#99CCFF;fontColor=#FFFFFF;fillColor=#0099CC;" parent="29BRqAdNC4ewfQVRm0Ns-1" vertex="1">
          <mxGeometry x="161" y="420" width="40" height="40" as="geometry" />
        </mxCell>
        <mxCell id="8HJ-TIYc04FHmpN_Z_e9-31" value="0" style="rounded=1;whiteSpace=wrap;html=1;absoluteArcSize=1;arcSize=30;strokeWidth=2;fontFamily=consolas;fontSize=20;strokeColor=#99CCFF;fontColor=#FFFFFF;fillColor=#0099CC;" parent="29BRqAdNC4ewfQVRm0Ns-1" vertex="1">
          <mxGeometry x="224" y="420" width="40" height="40" as="geometry" />
        </mxCell>
        <mxCell id="8HJ-TIYc04FHmpN_Z_e9-32" value="4" style="rounded=1;whiteSpace=wrap;html=1;absoluteArcSize=1;arcSize=30;strokeWidth=2;fontFamily=consolas;fontSize=20;strokeColor=#99CCFF;fontColor=#FFFFFF;fillColor=#0099CC;" parent="29BRqAdNC4ewfQVRm0Ns-1" vertex="1">
          <mxGeometry x="264.38" y="420" width="40" height="40" as="geometry" />
        </mxCell>
        <mxCell id="8HJ-TIYc04FHmpN_Z_e9-33" value="4" style="rounded=1;whiteSpace=wrap;html=1;absoluteArcSize=1;arcSize=30;strokeWidth=2;fontFamily=consolas;fontSize=20;strokeColor=#99CCFF;fontColor=#FFFFFF;fillColor=#0099CC;" parent="29BRqAdNC4ewfQVRm0Ns-1" vertex="1">
          <mxGeometry x="404" y="420" width="40" height="40" as="geometry" />
        </mxCell>
        <mxCell id="8HJ-TIYc04FHmpN_Z_e9-34" value="9" style="rounded=1;whiteSpace=wrap;html=1;absoluteArcSize=1;arcSize=30;strokeWidth=2;fontFamily=consolas;fontSize=20;strokeColor=#99CCFF;fontColor=#FFFFFF;fillColor=#0099CC;" parent="29BRqAdNC4ewfQVRm0Ns-1" vertex="1">
          <mxGeometry x="444" y="420" width="40" height="40" as="geometry" />
        </mxCell>
        <mxCell id="8HJ-TIYc04FHmpN_Z_e9-35" value="8" style="rounded=1;whiteSpace=wrap;html=1;absoluteArcSize=1;arcSize=30;strokeWidth=2;fontFamily=consolas;fontSize=20;strokeColor=#99CCFF;fontColor=#FFFFFF;fillColor=#0099CC;" parent="29BRqAdNC4ewfQVRm0Ns-1" vertex="1">
          <mxGeometry x="524" y="420" width="40" height="40" as="geometry" />
        </mxCell>
        <mxCell id="8HJ-TIYc04FHmpN_Z_e9-36" value="" style="endArrow=oval;html=1;rounded=1;strokeWidth=3;strokeColor=#FFD966;startArrow=classic;startFill=1;arcSize=36;endFill=1;fontFamily=Tahoma;" parent="29BRqAdNC4ewfQVRm0Ns-1" edge="1">
          <mxGeometry width="50" height="50" relative="1" as="geometry">
            <mxPoint x="160" y="410" as="sourcePoint" />
            <mxPoint x="110" y="380" as="targetPoint" />
          </mxGeometry>
        </mxCell>
        <mxCell id="8HJ-TIYc04FHmpN_Z_e9-37" value="" style="endArrow=oval;html=1;rounded=1;strokeWidth=3;strokeColor=#FFD966;startArrow=classic;startFill=1;arcSize=36;endFill=1;fontFamily=Tahoma;" parent="29BRqAdNC4ewfQVRm0Ns-1" edge="1">
          <mxGeometry width="50" height="50" relative="1" as="geometry">
            <mxPoint x="160" y="410" as="sourcePoint" />
            <mxPoint x="174" y="380" as="targetPoint" />
          </mxGeometry>
        </mxCell>
        <mxCell id="8HJ-TIYc04FHmpN_Z_e9-38" value="0" style="rounded=1;whiteSpace=wrap;html=1;absoluteArcSize=1;arcSize=30;strokeWidth=2;fontFamily=consolas;fontSize=20;strokeColor=#99CCFF;fontColor=#FFFFFF;fillColor=#0099CC;" parent="29BRqAdNC4ewfQVRm0Ns-1" vertex="1">
          <mxGeometry x="144" y="510" width="40" height="40" as="geometry" />
        </mxCell>
        <mxCell id="8HJ-TIYc04FHmpN_Z_e9-39" value="1" style="rounded=1;whiteSpace=wrap;html=1;absoluteArcSize=1;arcSize=30;strokeWidth=2;fontFamily=consolas;fontSize=20;strokeColor=#99CCFF;fontColor=#FFFFFF;fillColor=#0099CC;" parent="29BRqAdNC4ewfQVRm0Ns-1" vertex="1">
          <mxGeometry x="184" y="510" width="40" height="40" as="geometry" />
        </mxCell>
        <mxCell id="8HJ-TIYc04FHmpN_Z_e9-40" value="4" style="rounded=1;whiteSpace=wrap;html=1;absoluteArcSize=1;arcSize=30;strokeWidth=2;fontFamily=consolas;fontSize=20;strokeColor=#99CCFF;fontColor=#FFFFFF;fillColor=#0099CC;" parent="29BRqAdNC4ewfQVRm0Ns-1" vertex="1">
          <mxGeometry x="224" y="510" width="40" height="40" as="geometry" />
        </mxCell>
        <mxCell id="8HJ-TIYc04FHmpN_Z_e9-41" value="7" style="rounded=1;whiteSpace=wrap;html=1;absoluteArcSize=1;arcSize=30;strokeWidth=2;fontFamily=consolas;fontSize=20;strokeColor=#99CCFF;fontColor=#FFFFFF;fillColor=#0099CC;" parent="29BRqAdNC4ewfQVRm0Ns-1" vertex="1">
          <mxGeometry x="264" y="510" width="40" height="40" as="geometry" />
        </mxCell>
        <mxCell id="8HJ-TIYc04FHmpN_Z_e9-42" value="4" style="rounded=1;whiteSpace=wrap;html=1;absoluteArcSize=1;arcSize=30;strokeWidth=2;fontFamily=consolas;fontSize=20;strokeColor=#99CCFF;fontColor=#FFFFFF;fillColor=#0099CC;" parent="29BRqAdNC4ewfQVRm0Ns-1" vertex="1">
          <mxGeometry x="423.19" y="510" width="40" height="40" as="geometry" />
        </mxCell>
        <mxCell id="8HJ-TIYc04FHmpN_Z_e9-43" value="8" style="rounded=1;whiteSpace=wrap;html=1;absoluteArcSize=1;arcSize=30;strokeWidth=2;fontFamily=consolas;fontSize=20;strokeColor=#99CCFF;fontColor=#FFFFFF;fillColor=#0099CC;" parent="29BRqAdNC4ewfQVRm0Ns-1" vertex="1">
          <mxGeometry x="463.19" y="510" width="40" height="40" as="geometry" />
        </mxCell>
        <mxCell id="8HJ-TIYc04FHmpN_Z_e9-44" value="9" style="rounded=1;whiteSpace=wrap;html=1;absoluteArcSize=1;arcSize=30;strokeWidth=2;fontFamily=consolas;fontSize=20;strokeColor=#99CCFF;fontColor=#FFFFFF;fillColor=#0099CC;" parent="29BRqAdNC4ewfQVRm0Ns-1" vertex="1">
          <mxGeometry x="503.19" y="510" width="40" height="40" as="geometry" />
        </mxCell>
        <mxCell id="8HJ-TIYc04FHmpN_Z_e9-45" value="0" style="rounded=1;whiteSpace=wrap;html=1;absoluteArcSize=1;arcSize=30;strokeWidth=2;fontFamily=consolas;fontSize=20;strokeColor=#99CCFF;fontColor=#FFFFFF;fillColor=#0099CC;" parent="29BRqAdNC4ewfQVRm0Ns-1" vertex="1">
          <mxGeometry x="210.19" y="600" width="40" height="40" as="geometry" />
        </mxCell>
        <mxCell id="8HJ-TIYc04FHmpN_Z_e9-46" value="1" style="rounded=1;whiteSpace=wrap;html=1;absoluteArcSize=1;arcSize=30;strokeWidth=2;fontFamily=consolas;fontSize=20;strokeColor=#99CCFF;fontColor=#FFFFFF;fillColor=#0099CC;" parent="29BRqAdNC4ewfQVRm0Ns-1" vertex="1">
          <mxGeometry x="250.19" y="600" width="40" height="40" as="geometry" />
        </mxCell>
        <mxCell id="8HJ-TIYc04FHmpN_Z_e9-47" value="4" style="rounded=1;whiteSpace=wrap;html=1;absoluteArcSize=1;arcSize=30;strokeWidth=2;fontFamily=consolas;fontSize=20;strokeColor=#99CCFF;fontColor=#FFFFFF;fillColor=#0099CC;" parent="29BRqAdNC4ewfQVRm0Ns-1" vertex="1">
          <mxGeometry x="290.19" y="600" width="40" height="40" as="geometry" />
        </mxCell>
        <mxCell id="8HJ-TIYc04FHmpN_Z_e9-48" value="4" style="rounded=1;whiteSpace=wrap;html=1;absoluteArcSize=1;arcSize=30;strokeWidth=2;fontFamily=consolas;fontSize=20;strokeColor=#99CCFF;fontColor=#FFFFFF;fillColor=#0099CC;" parent="29BRqAdNC4ewfQVRm0Ns-1" vertex="1">
          <mxGeometry x="332.19" y="600" width="40" height="40" as="geometry" />
        </mxCell>
        <mxCell id="8HJ-TIYc04FHmpN_Z_e9-49" value="7" style="rounded=1;whiteSpace=wrap;html=1;absoluteArcSize=1;arcSize=30;strokeWidth=2;fontFamily=consolas;fontSize=20;strokeColor=#99CCFF;fontColor=#FFFFFF;fillColor=#0099CC;" parent="29BRqAdNC4ewfQVRm0Ns-1" vertex="1">
          <mxGeometry x="372.19" y="600" width="40" height="40" as="geometry" />
        </mxCell>
        <mxCell id="8HJ-TIYc04FHmpN_Z_e9-50" value="8" style="rounded=1;whiteSpace=wrap;html=1;absoluteArcSize=1;arcSize=30;strokeWidth=2;fontFamily=consolas;fontSize=20;strokeColor=#99CCFF;fontColor=#FFFFFF;fillColor=#0099CC;" parent="29BRqAdNC4ewfQVRm0Ns-1" vertex="1">
          <mxGeometry x="413.19" y="600" width="40" height="40" as="geometry" />
        </mxCell>
        <mxCell id="8HJ-TIYc04FHmpN_Z_e9-51" value="9" style="rounded=1;whiteSpace=wrap;html=1;absoluteArcSize=1;arcSize=30;strokeWidth=2;fontFamily=consolas;fontSize=20;strokeColor=#99CCFF;fontColor=#FFFFFF;fillColor=#0099CC;" parent="29BRqAdNC4ewfQVRm0Ns-1" vertex="1">
          <mxGeometry x="453.19" y="600" width="40" height="40" as="geometry" />
        </mxCell>
        <mxCell id="8HJ-TIYc04FHmpN_Z_e9-52" value="" style="endArrow=oval;html=1;rounded=1;strokeWidth=3;strokeColor=#FFD966;startArrow=classic;startFill=1;arcSize=36;endFill=1;fontFamily=Tahoma;" parent="29BRqAdNC4ewfQVRm0Ns-1" edge="1">
          <mxGeometry width="50" height="50" relative="1" as="geometry">
            <mxPoint x="534" y="230" as="sourcePoint" />
            <mxPoint x="494" y="200" as="targetPoint" />
          </mxGeometry>
        </mxCell>
        <mxCell id="8HJ-TIYc04FHmpN_Z_e9-53" value="" style="endArrow=oval;html=1;rounded=1;strokeWidth=3;strokeColor=#FFD966;startArrow=classic;startFill=1;arcSize=36;endFill=1;fontFamily=Tahoma;" parent="29BRqAdNC4ewfQVRm0Ns-1" edge="1">
          <mxGeometry width="50" height="50" relative="1" as="geometry">
            <mxPoint x="454" y="230" as="sourcePoint" />
            <mxPoint x="494" y="200" as="targetPoint" />
          </mxGeometry>
        </mxCell>
        <mxCell id="8HJ-TIYc04FHmpN_Z_e9-54" value="" style="endArrow=oval;html=1;rounded=1;strokeWidth=3;strokeColor=#FFD966;startArrow=classic;startFill=1;arcSize=36;endFill=1;fontFamily=Tahoma;" parent="29BRqAdNC4ewfQVRm0Ns-1" edge="1">
          <mxGeometry width="50" height="50" relative="1" as="geometry">
            <mxPoint x="300" y="320" as="sourcePoint" />
            <mxPoint x="270" y="290" as="targetPoint" />
          </mxGeometry>
        </mxCell>
        <mxCell id="8HJ-TIYc04FHmpN_Z_e9-55" value="" style="endArrow=oval;html=1;rounded=1;strokeWidth=3;strokeColor=#FFD966;startArrow=classic;startFill=1;arcSize=36;endFill=1;fontFamily=Tahoma;" parent="29BRqAdNC4ewfQVRm0Ns-1" edge="1">
          <mxGeometry width="50" height="50" relative="1" as="geometry">
            <mxPoint x="244" y="320" as="sourcePoint" />
            <mxPoint x="270" y="290" as="targetPoint" />
          </mxGeometry>
        </mxCell>
        <mxCell id="8HJ-TIYc04FHmpN_Z_e9-56" value="" style="endArrow=oval;html=1;rounded=1;strokeWidth=3;strokeColor=#FFD966;startArrow=classic;startFill=1;arcSize=36;endFill=1;fontFamily=Tahoma;" parent="29BRqAdNC4ewfQVRm0Ns-1" edge="1">
          <mxGeometry width="50" height="50" relative="1" as="geometry">
            <mxPoint x="404" y="320" as="sourcePoint" />
            <mxPoint x="440" y="290" as="targetPoint" />
          </mxGeometry>
        </mxCell>
        <mxCell id="8HJ-TIYc04FHmpN_Z_e9-57" value="" style="endArrow=oval;html=1;rounded=1;strokeWidth=3;strokeColor=#FFD966;startArrow=classic;startFill=1;arcSize=36;endFill=1;fontFamily=Tahoma;" parent="29BRqAdNC4ewfQVRm0Ns-1" edge="1">
          <mxGeometry width="50" height="50" relative="1" as="geometry">
            <mxPoint x="474" y="320" as="sourcePoint" />
            <mxPoint x="440" y="290" as="targetPoint" />
          </mxGeometry>
        </mxCell>
        <mxCell id="8HJ-TIYc04FHmpN_Z_e9-58" value="" style="endArrow=oval;html=1;rounded=1;strokeWidth=3;strokeColor=#FFD966;startArrow=classic;startFill=1;arcSize=36;endFill=1;fontFamily=Tahoma;" parent="29BRqAdNC4ewfQVRm0Ns-1" edge="1">
          <mxGeometry width="50" height="50" relative="1" as="geometry">
            <mxPoint x="544" y="320" as="sourcePoint" />
            <mxPoint x="544" y="290" as="targetPoint" />
          </mxGeometry>
        </mxCell>
        <mxCell id="8HJ-TIYc04FHmpN_Z_e9-59" value="" style="endArrow=oval;html=1;rounded=1;strokeWidth=3;strokeColor=#FFD966;startArrow=classic;startFill=1;arcSize=36;endFill=1;fontFamily=Tahoma;" parent="29BRqAdNC4ewfQVRm0Ns-1" edge="1">
          <mxGeometry width="50" height="50" relative="1" as="geometry">
            <mxPoint x="270" y="410" as="sourcePoint" />
            <mxPoint x="244" y="380" as="targetPoint" />
          </mxGeometry>
        </mxCell>
        <mxCell id="8HJ-TIYc04FHmpN_Z_e9-60" value="" style="endArrow=oval;html=1;rounded=1;strokeWidth=3;strokeColor=#FFD966;startArrow=classic;startFill=1;arcSize=36;endFill=1;fontFamily=Tahoma;" parent="29BRqAdNC4ewfQVRm0Ns-1" edge="1">
          <mxGeometry width="50" height="50" relative="1" as="geometry">
            <mxPoint x="270" y="410" as="sourcePoint" />
            <mxPoint x="300" y="380" as="targetPoint" />
          </mxGeometry>
        </mxCell>
        <mxCell id="8HJ-TIYc04FHmpN_Z_e9-61" value="" style="endArrow=oval;html=1;rounded=1;strokeWidth=3;strokeColor=#FFD966;startArrow=classic;startFill=1;arcSize=36;endFill=1;fontFamily=Tahoma;" parent="29BRqAdNC4ewfQVRm0Ns-1" edge="1">
          <mxGeometry width="50" height="50" relative="1" as="geometry">
            <mxPoint x="440" y="410" as="sourcePoint" />
            <mxPoint x="403.19" y="380" as="targetPoint" />
          </mxGeometry>
        </mxCell>
        <mxCell id="8HJ-TIYc04FHmpN_Z_e9-62" value="" style="endArrow=oval;html=1;rounded=1;strokeWidth=3;strokeColor=#FFD966;startArrow=classic;startFill=1;arcSize=36;endFill=1;fontFamily=Tahoma;" parent="29BRqAdNC4ewfQVRm0Ns-1" edge="1">
          <mxGeometry width="50" height="50" relative="1" as="geometry">
            <mxPoint x="440" y="410" as="sourcePoint" />
            <mxPoint x="474" y="380" as="targetPoint" />
          </mxGeometry>
        </mxCell>
        <mxCell id="8HJ-TIYc04FHmpN_Z_e9-63" value="" style="endArrow=oval;html=1;rounded=1;strokeWidth=3;strokeColor=#FFD966;startArrow=classic;startFill=1;arcSize=36;endFill=1;fontFamily=Tahoma;" parent="29BRqAdNC4ewfQVRm0Ns-1" edge="1">
          <mxGeometry width="50" height="50" relative="1" as="geometry">
            <mxPoint x="544" y="410" as="sourcePoint" />
            <mxPoint x="544" y="380" as="targetPoint" />
          </mxGeometry>
        </mxCell>
        <mxCell id="8HJ-TIYc04FHmpN_Z_e9-64" value="" style="endArrow=oval;html=1;rounded=1;strokeWidth=3;strokeColor=#FFD966;startArrow=classic;startFill=1;arcSize=36;endFill=1;fontFamily=Tahoma;" parent="29BRqAdNC4ewfQVRm0Ns-1" edge="1">
          <mxGeometry width="50" height="50" relative="1" as="geometry">
            <mxPoint x="224.81" y="500" as="sourcePoint" />
            <mxPoint x="184.81" y="470" as="targetPoint" />
          </mxGeometry>
        </mxCell>
        <mxCell id="8HJ-TIYc04FHmpN_Z_e9-65" value="" style="endArrow=oval;html=1;rounded=1;strokeWidth=3;strokeColor=#FFD966;startArrow=classic;startFill=1;arcSize=36;endFill=1;fontFamily=Tahoma;" parent="29BRqAdNC4ewfQVRm0Ns-1" edge="1">
          <mxGeometry width="50" height="50" relative="1" as="geometry">
            <mxPoint x="224.81" y="500" as="sourcePoint" />
            <mxPoint x="254.81" y="470" as="targetPoint" />
          </mxGeometry>
        </mxCell>
        <mxCell id="8HJ-TIYc04FHmpN_Z_e9-66" value="" style="endArrow=oval;html=1;rounded=1;strokeWidth=3;strokeColor=#FFD966;startArrow=classic;startFill=1;arcSize=36;endFill=1;fontFamily=Tahoma;" parent="29BRqAdNC4ewfQVRm0Ns-1" edge="1">
          <mxGeometry width="50" height="50" relative="1" as="geometry">
            <mxPoint x="484" y="500" as="sourcePoint" />
            <mxPoint x="444" y="470" as="targetPoint" />
          </mxGeometry>
        </mxCell>
        <mxCell id="8HJ-TIYc04FHmpN_Z_e9-67" value="" style="endArrow=oval;html=1;rounded=1;strokeWidth=3;strokeColor=#FFD966;startArrow=classic;startFill=1;arcSize=36;endFill=1;fontFamily=Tahoma;" parent="29BRqAdNC4ewfQVRm0Ns-1" edge="1">
          <mxGeometry width="50" height="50" relative="1" as="geometry">
            <mxPoint x="484" y="500" as="sourcePoint" />
            <mxPoint x="524" y="470" as="targetPoint" />
          </mxGeometry>
        </mxCell>
        <mxCell id="8HJ-TIYc04FHmpN_Z_e9-68" value="" style="endArrow=oval;html=1;rounded=1;strokeWidth=3;strokeColor=#FFD966;startArrow=classic;startFill=1;arcSize=36;endFill=1;fontFamily=Tahoma;" parent="29BRqAdNC4ewfQVRm0Ns-1" edge="1">
          <mxGeometry width="50" height="50" relative="1" as="geometry">
            <mxPoint x="354" y="590" as="sourcePoint" />
            <mxPoint x="314" y="560" as="targetPoint" />
          </mxGeometry>
        </mxCell>
        <mxCell id="8HJ-TIYc04FHmpN_Z_e9-69" value="" style="endArrow=oval;html=1;rounded=1;strokeWidth=3;strokeColor=#FFD966;startArrow=classic;startFill=1;arcSize=36;endFill=1;fontFamily=Tahoma;" parent="29BRqAdNC4ewfQVRm0Ns-1" edge="1">
          <mxGeometry width="50" height="50" relative="1" as="geometry">
            <mxPoint x="354" y="590" as="sourcePoint" />
            <mxPoint x="394" y="560" as="targetPoint" />
          </mxGeometry>
        </mxCell>
        <mxCell id="8HJ-TIYc04FHmpN_Z_e9-70" value="1" style="ellipse;whiteSpace=wrap;html=1;aspect=fixed;strokeWidth=2;fontFamily=Tahoma;spacingBottom=0;spacingRight=0;strokeColor=none;fillColor=#fff2cc;spacing=0;verticalAlign=middle;align=center;fontSize=16;" parent="29BRqAdNC4ewfQVRm0Ns-1" vertex="1">
          <mxGeometry x="289" y="110.25" width="26" height="26" as="geometry" />
        </mxCell>
        <mxCell id="8HJ-TIYc04FHmpN_Z_e9-78" value="10" style="ellipse;whiteSpace=wrap;html=1;aspect=fixed;strokeWidth=2;fontFamily=Tahoma;spacingBottom=0;spacingRight=0;strokeColor=none;fillColor=#fff2cc;spacing=0;verticalAlign=middle;align=center;fontSize=16;" parent="29BRqAdNC4ewfQVRm0Ns-1" vertex="1">
          <mxGeometry x="387.19" y="390" width="26" height="26" as="geometry" />
        </mxCell>
        <mxCell id="8HJ-TIYc04FHmpN_Z_e9-79" value="5" style="ellipse;whiteSpace=wrap;html=1;aspect=fixed;strokeWidth=2;fontFamily=Tahoma;spacingBottom=0;spacingRight=0;strokeColor=none;fillColor=#fff2cc;spacing=0;verticalAlign=middle;align=center;fontSize=16;" parent="29BRqAdNC4ewfQVRm0Ns-1" vertex="1">
          <mxGeometry x="219.81" y="290" width="26" height="26" as="geometry" />
        </mxCell>
        <mxCell id="8HJ-TIYc04FHmpN_Z_e9-80" value="9" style="ellipse;whiteSpace=wrap;html=1;aspect=fixed;strokeWidth=2;fontFamily=Tahoma;spacingBottom=0;spacingRight=0;strokeColor=none;fillColor=#fff2cc;spacing=0;verticalAlign=middle;align=center;fontSize=16;" parent="29BRqAdNC4ewfQVRm0Ns-1" vertex="1">
          <mxGeometry x="381.38" y="290" width="26" height="26" as="geometry" />
        </mxCell>
        <mxCell id="8HJ-TIYc04FHmpN_Z_e9-81" value="8" style="ellipse;whiteSpace=wrap;html=1;aspect=fixed;strokeWidth=2;fontFamily=Tahoma;spacingBottom=0;spacingRight=0;strokeColor=none;fillColor=#fff2cc;spacing=0;verticalAlign=middle;align=center;fontSize=16;" parent="29BRqAdNC4ewfQVRm0Ns-1" vertex="1">
          <mxGeometry x="430.19" y="200" width="26" height="26" as="geometry" />
        </mxCell>
        <mxCell id="8HJ-TIYc04FHmpN_Z_e9-82" value="7" style="ellipse;whiteSpace=wrap;html=1;aspect=fixed;strokeWidth=2;fontFamily=Tahoma;spacingBottom=0;spacingRight=0;strokeColor=none;fillColor=#fff2cc;spacing=0;verticalAlign=middle;align=center;fontSize=16;" parent="29BRqAdNC4ewfQVRm0Ns-1" vertex="1">
          <mxGeometry x="174" y="480" width="26" height="26" as="geometry" />
        </mxCell>
        <mxCell id="8HJ-TIYc04FHmpN_Z_e9-83" value="3" style="ellipse;whiteSpace=wrap;html=1;aspect=fixed;strokeWidth=2;fontFamily=Tahoma;spacingBottom=0;spacingRight=0;strokeColor=none;fillColor=#fff2cc;spacing=0;verticalAlign=middle;align=center;fontSize=16;" parent="29BRqAdNC4ewfQVRm0Ns-1" vertex="1">
          <mxGeometry x="97" y="290" width="26" height="26" as="geometry" />
        </mxCell>
        <mxCell id="8HJ-TIYc04FHmpN_Z_e9-84" value="6" style="ellipse;whiteSpace=wrap;html=1;aspect=fixed;strokeWidth=2;fontFamily=Tahoma;spacingBottom=0;spacingRight=0;strokeColor=none;fillColor=#fff2cc;spacing=0;verticalAlign=middle;align=center;fontSize=16;" parent="29BRqAdNC4ewfQVRm0Ns-1" vertex="1">
          <mxGeometry x="227.19" y="390" width="26" height="26" as="geometry" />
        </mxCell>
        <mxCell id="8HJ-TIYc04FHmpN_Z_e9-85" value="2" style="ellipse;whiteSpace=wrap;html=1;aspect=fixed;strokeWidth=2;fontFamily=Tahoma;spacingBottom=0;spacingRight=0;strokeColor=none;fillColor=#fff2cc;spacing=0;verticalAlign=middle;align=center;fontSize=16;" parent="29BRqAdNC4ewfQVRm0Ns-1" vertex="1">
          <mxGeometry x="151" y="200" width="26" height="26" as="geometry" />
        </mxCell>
        <mxCell id="8HJ-TIYc04FHmpN_Z_e9-86" value="4" style="ellipse;whiteSpace=wrap;html=1;aspect=fixed;strokeWidth=2;fontFamily=Tahoma;spacingBottom=0;spacingRight=0;strokeColor=none;fillColor=#fff2cc;spacing=0;verticalAlign=middle;align=center;fontSize=16;" parent="29BRqAdNC4ewfQVRm0Ns-1" vertex="1">
          <mxGeometry x="106" y="390" width="26" height="26" as="geometry" />
        </mxCell>
        <mxCell id="wt9C3p6Yt448QwbyhAId-5" value="12" style="ellipse;whiteSpace=wrap;html=1;aspect=fixed;strokeWidth=2;fontFamily=Tahoma;spacingBottom=0;spacingRight=0;strokeColor=none;fillColor=#fff2cc;spacing=0;verticalAlign=middle;align=center;fontSize=16;" parent="29BRqAdNC4ewfQVRm0Ns-1" vertex="1">
          <mxGeometry x="304.38" y="574" width="26" height="26" as="geometry" />
        </mxCell>
        <mxCell id="wt9C3p6Yt448QwbyhAId-6" value="11" style="ellipse;whiteSpace=wrap;html=1;aspect=fixed;strokeWidth=2;fontFamily=Tahoma;spacingBottom=0;spacingRight=0;strokeColor=none;fillColor=#fff2cc;spacing=0;verticalAlign=middle;align=center;fontSize=16;" parent="29BRqAdNC4ewfQVRm0Ns-1" vertex="1">
          <mxGeometry x="433" y="480" width="26" height="26" as="geometry" />
        </mxCell>
      </root>
    </mxGraphModel>
  </diagram>
  <diagram name="merge-sort-demo.old" id="vqfMl5XP8F9MOg36m7pR">
    <mxGraphModel dx="1037" dy="758" grid="1" gridSize="10" guides="1" tooltips="1" connect="1" arrows="1" fold="1" page="1" pageScale="1" pageWidth="850" pageHeight="1100" math="0" shadow="0">
      <root>
        <mxCell id="x_xGGKujTksbWdjjx1H9-0" />
        <mxCell id="x_xGGKujTksbWdjjx1H9-1" parent="x_xGGKujTksbWdjjx1H9-0" />
        <mxCell id="x_xGGKujTksbWdjjx1H9-2" value="1" style="rounded=1;whiteSpace=wrap;html=1;absoluteArcSize=1;arcSize=30;strokeWidth=2;fontFamily=consolas;fontSize=20;strokeColor=#008FBA;fontColor=#008FBA;fillColor=none;" vertex="1" parent="x_xGGKujTksbWdjjx1H9-1">
          <mxGeometry x="164" y="57.5" width="40" height="40" as="geometry" />
        </mxCell>
        <mxCell id="x_xGGKujTksbWdjjx1H9-3" value="0" style="rounded=1;whiteSpace=wrap;html=1;absoluteArcSize=1;arcSize=14;strokeWidth=2;fontFamily=consolas;fontSize=20;strokeColor=none;fontColor=#000000;fillColor=none;" vertex="1" parent="x_xGGKujTksbWdjjx1H9-1">
          <mxGeometry x="169.81" y="30" width="28.38" height="27.5" as="geometry" />
        </mxCell>
        <mxCell id="x_xGGKujTksbWdjjx1H9-4" value="7" style="rounded=1;whiteSpace=wrap;html=1;absoluteArcSize=1;arcSize=30;strokeWidth=2;fontFamily=consolas;fontSize=20;strokeColor=#008FBA;fontColor=#008FBA;fillColor=none;" vertex="1" parent="x_xGGKujTksbWdjjx1H9-1">
          <mxGeometry x="214" y="57.5" width="40" height="40" as="geometry" />
        </mxCell>
        <mxCell id="x_xGGKujTksbWdjjx1H9-5" value="4" style="rounded=1;whiteSpace=wrap;html=1;absoluteArcSize=1;arcSize=30;strokeWidth=2;fontFamily=consolas;fontSize=20;strokeColor=#008FBA;fontColor=#008FBA;fillColor=none;" vertex="1" parent="x_xGGKujTksbWdjjx1H9-1">
          <mxGeometry x="264" y="57.5" width="40" height="40" as="geometry" />
        </mxCell>
        <mxCell id="x_xGGKujTksbWdjjx1H9-6" value="0" style="rounded=1;whiteSpace=wrap;html=1;absoluteArcSize=1;arcSize=30;strokeWidth=2;fontFamily=consolas;fontSize=20;strokeColor=#008FBA;fontColor=#008FBA;fillColor=none;" vertex="1" parent="x_xGGKujTksbWdjjx1H9-1">
          <mxGeometry x="314" y="57.5" width="40" height="40" as="geometry" />
        </mxCell>
        <mxCell id="x_xGGKujTksbWdjjx1H9-7" value="9" style="rounded=1;whiteSpace=wrap;html=1;absoluteArcSize=1;arcSize=30;strokeWidth=2;fontFamily=consolas;fontSize=20;strokeColor=#008FBA;fontColor=#008FBA;fillColor=none;" vertex="1" parent="x_xGGKujTksbWdjjx1H9-1">
          <mxGeometry x="364" y="57.5" width="40" height="40" as="geometry" />
        </mxCell>
        <mxCell id="x_xGGKujTksbWdjjx1H9-8" value="4" style="rounded=1;whiteSpace=wrap;html=1;absoluteArcSize=1;arcSize=30;strokeWidth=2;fontFamily=consolas;fontSize=20;strokeColor=#008FBA;fontColor=#008FBA;fillColor=none;" vertex="1" parent="x_xGGKujTksbWdjjx1H9-1">
          <mxGeometry x="414" y="57.5" width="40" height="40" as="geometry" />
        </mxCell>
        <mxCell id="x_xGGKujTksbWdjjx1H9-9" value="8" style="rounded=1;whiteSpace=wrap;html=1;absoluteArcSize=1;arcSize=30;strokeWidth=2;fontFamily=consolas;fontSize=20;strokeColor=#008FBA;fontColor=#008FBA;fillColor=none;" vertex="1" parent="x_xGGKujTksbWdjjx1H9-1">
          <mxGeometry x="463.19" y="57.5" width="40" height="40" as="geometry" />
        </mxCell>
        <mxCell id="x_xGGKujTksbWdjjx1H9-10" value="1" style="rounded=1;whiteSpace=wrap;html=1;absoluteArcSize=1;arcSize=14;strokeWidth=2;fontFamily=consolas;fontSize=20;strokeColor=none;fontColor=#000000;fillColor=none;" vertex="1" parent="x_xGGKujTksbWdjjx1H9-1">
          <mxGeometry x="219.81" y="30" width="28.38" height="27.5" as="geometry" />
        </mxCell>
        <mxCell id="x_xGGKujTksbWdjjx1H9-11" value="2" style="rounded=1;whiteSpace=wrap;html=1;absoluteArcSize=1;arcSize=14;strokeWidth=2;fontFamily=consolas;fontSize=20;strokeColor=none;fontColor=#000000;fillColor=none;" vertex="1" parent="x_xGGKujTksbWdjjx1H9-1">
          <mxGeometry x="269.81" y="30" width="28.38" height="27.5" as="geometry" />
        </mxCell>
        <mxCell id="x_xGGKujTksbWdjjx1H9-12" value="3" style="rounded=1;whiteSpace=wrap;html=1;absoluteArcSize=1;arcSize=14;strokeWidth=2;fontFamily=consolas;fontSize=20;strokeColor=none;fontColor=#000000;fillColor=none;" vertex="1" parent="x_xGGKujTksbWdjjx1H9-1">
          <mxGeometry x="319.81" y="30" width="28.38" height="27.5" as="geometry" />
        </mxCell>
        <mxCell id="x_xGGKujTksbWdjjx1H9-13" value="4" style="rounded=1;whiteSpace=wrap;html=1;absoluteArcSize=1;arcSize=14;strokeWidth=2;fontFamily=consolas;fontSize=20;strokeColor=none;fontColor=#000000;fillColor=none;" vertex="1" parent="x_xGGKujTksbWdjjx1H9-1">
          <mxGeometry x="369.81" y="30" width="28.38" height="27.5" as="geometry" />
        </mxCell>
        <mxCell id="x_xGGKujTksbWdjjx1H9-14" value="5" style="rounded=1;whiteSpace=wrap;html=1;absoluteArcSize=1;arcSize=14;strokeWidth=2;fontFamily=consolas;fontSize=20;strokeColor=none;fontColor=#000000;fillColor=none;" vertex="1" parent="x_xGGKujTksbWdjjx1H9-1">
          <mxGeometry x="419.81" y="30" width="28.38" height="27.5" as="geometry" />
        </mxCell>
        <mxCell id="x_xGGKujTksbWdjjx1H9-15" value="6" style="rounded=1;whiteSpace=wrap;html=1;absoluteArcSize=1;arcSize=14;strokeWidth=2;fontFamily=consolas;fontSize=20;strokeColor=none;fontColor=#000000;fillColor=none;" vertex="1" parent="x_xGGKujTksbWdjjx1H9-1">
          <mxGeometry x="469" y="30" width="28.38" height="27.5" as="geometry" />
        </mxCell>
        <mxCell id="x_xGGKujTksbWdjjx1H9-16" value="" style="endArrow=oval;html=1;rounded=1;strokeWidth=3;strokeColor=#FFD966;startArrow=classic;startFill=1;arcSize=36;endFill=1;" edge="1" parent="x_xGGKujTksbWdjjx1H9-1">
          <mxGeometry width="50" height="50" relative="1" as="geometry">
            <mxPoint x="314" y="140" as="sourcePoint" />
            <mxPoint x="354" y="110" as="targetPoint" />
          </mxGeometry>
        </mxCell>
        <mxCell id="x_xGGKujTksbWdjjx1H9-17" value="" style="endArrow=oval;html=1;rounded=1;strokeWidth=3;strokeColor=#FFD966;startArrow=classic;startFill=1;arcSize=36;endFill=1;" edge="1" parent="x_xGGKujTksbWdjjx1H9-1">
          <mxGeometry width="50" height="50" relative="1" as="geometry">
            <mxPoint x="394" y="140" as="sourcePoint" />
            <mxPoint x="354" y="110" as="targetPoint" />
          </mxGeometry>
        </mxCell>
        <mxCell id="x_xGGKujTksbWdjjx1H9-18" value="1" style="rounded=1;whiteSpace=wrap;html=1;absoluteArcSize=1;arcSize=30;strokeWidth=2;fontFamily=consolas;fontSize=20;strokeColor=#008FBA;fontColor=#008FBA;fillColor=none;" vertex="1" parent="x_xGGKujTksbWdjjx1H9-1">
          <mxGeometry x="124" y="150" width="40" height="40" as="geometry" />
        </mxCell>
        <mxCell id="x_xGGKujTksbWdjjx1H9-19" value="7" style="rounded=1;whiteSpace=wrap;html=1;absoluteArcSize=1;arcSize=30;strokeWidth=2;fontFamily=consolas;fontSize=20;strokeColor=#008FBA;fontColor=#008FBA;fillColor=none;" vertex="1" parent="x_xGGKujTksbWdjjx1H9-1">
          <mxGeometry x="174" y="150" width="40" height="40" as="geometry" />
        </mxCell>
        <mxCell id="x_xGGKujTksbWdjjx1H9-20" value="4" style="rounded=1;whiteSpace=wrap;html=1;absoluteArcSize=1;arcSize=30;strokeWidth=2;fontFamily=consolas;fontSize=20;strokeColor=#008FBA;fontColor=#008FBA;fillColor=none;" vertex="1" parent="x_xGGKujTksbWdjjx1H9-1">
          <mxGeometry x="224" y="150" width="40" height="40" as="geometry" />
        </mxCell>
        <mxCell id="x_xGGKujTksbWdjjx1H9-21" value="0" style="rounded=1;whiteSpace=wrap;html=1;absoluteArcSize=1;arcSize=30;strokeWidth=2;fontFamily=consolas;fontSize=20;strokeColor=#008FBA;fontColor=#008FBA;fillColor=none;" vertex="1" parent="x_xGGKujTksbWdjjx1H9-1">
          <mxGeometry x="274" y="150" width="40" height="40" as="geometry" />
        </mxCell>
        <mxCell id="x_xGGKujTksbWdjjx1H9-22" value="9" style="rounded=1;whiteSpace=wrap;html=1;absoluteArcSize=1;arcSize=30;strokeWidth=2;fontFamily=consolas;fontSize=20;strokeColor=#008FBA;fontColor=#008FBA;fillColor=none;" vertex="1" parent="x_xGGKujTksbWdjjx1H9-1">
          <mxGeometry x="394" y="150" width="40" height="40" as="geometry" />
        </mxCell>
        <mxCell id="x_xGGKujTksbWdjjx1H9-23" value="4" style="rounded=1;whiteSpace=wrap;html=1;absoluteArcSize=1;arcSize=30;strokeWidth=2;fontFamily=consolas;fontSize=20;strokeColor=#008FBA;fontColor=#008FBA;fillColor=none;" vertex="1" parent="x_xGGKujTksbWdjjx1H9-1">
          <mxGeometry x="444" y="150" width="40" height="40" as="geometry" />
        </mxCell>
        <mxCell id="x_xGGKujTksbWdjjx1H9-24" value="8" style="rounded=1;whiteSpace=wrap;html=1;absoluteArcSize=1;arcSize=30;strokeWidth=2;fontFamily=consolas;fontSize=20;strokeColor=#008FBA;fontColor=#008FBA;fillColor=none;" vertex="1" parent="x_xGGKujTksbWdjjx1H9-1">
          <mxGeometry x="493.19" y="150" width="40" height="40" as="geometry" />
        </mxCell>
        <mxCell id="x_xGGKujTksbWdjjx1H9-25" value="1" style="rounded=1;whiteSpace=wrap;html=1;absoluteArcSize=1;arcSize=30;strokeWidth=2;fontFamily=consolas;fontSize=20;strokeColor=#008FBA;fontColor=#008FBA;fillColor=none;" vertex="1" parent="x_xGGKujTksbWdjjx1H9-1">
          <mxGeometry x="99" y="240" width="40" height="40" as="geometry" />
        </mxCell>
        <mxCell id="x_xGGKujTksbWdjjx1H9-26" value="7" style="rounded=1;whiteSpace=wrap;html=1;absoluteArcSize=1;arcSize=30;strokeWidth=2;fontFamily=consolas;fontSize=20;strokeColor=#008FBA;fontColor=#008FBA;fillColor=none;" vertex="1" parent="x_xGGKujTksbWdjjx1H9-1">
          <mxGeometry x="149" y="240" width="40" height="40" as="geometry" />
        </mxCell>
        <mxCell id="x_xGGKujTksbWdjjx1H9-27" value="4" style="rounded=1;whiteSpace=wrap;html=1;absoluteArcSize=1;arcSize=30;strokeWidth=2;fontFamily=consolas;fontSize=20;strokeColor=#008FBA;fontColor=#008FBA;fillColor=none;" vertex="1" parent="x_xGGKujTksbWdjjx1H9-1">
          <mxGeometry x="239" y="240" width="40" height="40" as="geometry" />
        </mxCell>
        <mxCell id="x_xGGKujTksbWdjjx1H9-28" value="0" style="rounded=1;whiteSpace=wrap;html=1;absoluteArcSize=1;arcSize=30;strokeWidth=2;fontFamily=consolas;fontSize=20;strokeColor=#008FBA;fontColor=#008FBA;fillColor=none;" vertex="1" parent="x_xGGKujTksbWdjjx1H9-1">
          <mxGeometry x="289" y="240" width="40" height="40" as="geometry" />
        </mxCell>
        <mxCell id="x_xGGKujTksbWdjjx1H9-29" value="" style="endArrow=oval;html=1;rounded=1;strokeWidth=3;strokeColor=#FFD966;startArrow=classic;startFill=1;arcSize=36;endFill=1;" edge="1" parent="x_xGGKujTksbWdjjx1H9-1">
          <mxGeometry width="50" height="50" relative="1" as="geometry">
            <mxPoint x="174" y="230" as="sourcePoint" />
            <mxPoint x="214" y="200" as="targetPoint" />
          </mxGeometry>
        </mxCell>
        <mxCell id="x_xGGKujTksbWdjjx1H9-30" value="" style="endArrow=oval;html=1;rounded=1;strokeWidth=3;strokeColor=#FFD966;startArrow=classic;startFill=1;arcSize=36;endFill=1;fontColor=#FF8000;" edge="1" parent="x_xGGKujTksbWdjjx1H9-1">
          <mxGeometry width="50" height="50" relative="1" as="geometry">
            <mxPoint x="254" y="230" as="sourcePoint" />
            <mxPoint x="214" y="200" as="targetPoint" />
          </mxGeometry>
        </mxCell>
        <mxCell id="x_xGGKujTksbWdjjx1H9-31" value="9" style="rounded=1;whiteSpace=wrap;html=1;absoluteArcSize=1;arcSize=30;strokeWidth=2;fontFamily=consolas;fontSize=20;strokeColor=#008FBA;fontColor=#008FBA;fillColor=none;" vertex="1" parent="x_xGGKujTksbWdjjx1H9-1">
          <mxGeometry x="389" y="240" width="40" height="40" as="geometry" />
        </mxCell>
        <mxCell id="x_xGGKujTksbWdjjx1H9-32" value="4" style="rounded=1;whiteSpace=wrap;html=1;absoluteArcSize=1;arcSize=30;strokeWidth=2;fontFamily=consolas;fontSize=20;strokeColor=#008FBA;fontColor=#008FBA;fillColor=none;" vertex="1" parent="x_xGGKujTksbWdjjx1H9-1">
          <mxGeometry x="439" y="240" width="40" height="40" as="geometry" />
        </mxCell>
        <mxCell id="x_xGGKujTksbWdjjx1H9-33" value="8" style="rounded=1;whiteSpace=wrap;html=1;absoluteArcSize=1;arcSize=30;strokeWidth=2;fontFamily=consolas;fontSize=20;strokeColor=#008FBA;fontColor=#008FBA;fillColor=none;" vertex="1" parent="x_xGGKujTksbWdjjx1H9-1">
          <mxGeometry x="524" y="240" width="40" height="40" as="geometry" />
        </mxCell>
        <mxCell id="x_xGGKujTksbWdjjx1H9-34" value="" style="endArrow=oval;html=1;rounded=1;strokeWidth=3;strokeColor=#FFD966;startArrow=classic;startFill=1;arcSize=36;endFill=1;" edge="1" parent="x_xGGKujTksbWdjjx1H9-1">
          <mxGeometry width="50" height="50" relative="1" as="geometry">
            <mxPoint x="104" y="320" as="sourcePoint" />
            <mxPoint x="144" y="290" as="targetPoint" />
          </mxGeometry>
        </mxCell>
        <mxCell id="x_xGGKujTksbWdjjx1H9-35" value="" style="endArrow=oval;html=1;rounded=1;strokeWidth=3;strokeColor=#FFD966;startArrow=classic;startFill=1;arcSize=36;endFill=1;" edge="1" parent="x_xGGKujTksbWdjjx1H9-1">
          <mxGeometry width="50" height="50" relative="1" as="geometry">
            <mxPoint x="174" y="320" as="sourcePoint" />
            <mxPoint x="144" y="290" as="targetPoint" />
          </mxGeometry>
        </mxCell>
        <mxCell id="x_xGGKujTksbWdjjx1H9-36" value="1" style="rounded=1;whiteSpace=wrap;html=1;absoluteArcSize=1;arcSize=30;strokeWidth=2;fontFamily=consolas;fontSize=20;strokeColor=#008FBA;fontColor=#008FBA;fillColor=none;" vertex="1" parent="x_xGGKujTksbWdjjx1H9-1">
          <mxGeometry x="84" y="330" width="40" height="40" as="geometry" />
        </mxCell>
        <mxCell id="x_xGGKujTksbWdjjx1H9-37" value="7" style="rounded=1;whiteSpace=wrap;html=1;absoluteArcSize=1;arcSize=30;strokeWidth=2;fontFamily=consolas;fontSize=20;strokeColor=#008FBA;fontColor=#008FBA;fillColor=none;" vertex="1" parent="x_xGGKujTksbWdjjx1H9-1">
          <mxGeometry x="154.81" y="330" width="40" height="40" as="geometry" />
        </mxCell>
        <mxCell id="x_xGGKujTksbWdjjx1H9-38" value="4" style="rounded=1;whiteSpace=wrap;html=1;absoluteArcSize=1;arcSize=30;strokeWidth=2;fontFamily=consolas;fontSize=20;strokeColor=#008FBA;fontColor=#008FBA;fillColor=none;" vertex="1" parent="x_xGGKujTksbWdjjx1H9-1">
          <mxGeometry x="219.81" y="330" width="40" height="40" as="geometry" />
        </mxCell>
        <mxCell id="x_xGGKujTksbWdjjx1H9-39" value="0" style="rounded=1;whiteSpace=wrap;html=1;absoluteArcSize=1;arcSize=30;strokeWidth=2;fontFamily=consolas;fontSize=20;strokeColor=#008FBA;fontColor=#008FBA;fillColor=none;" vertex="1" parent="x_xGGKujTksbWdjjx1H9-1">
          <mxGeometry x="308.19" y="330" width="40" height="40" as="geometry" />
        </mxCell>
        <mxCell id="x_xGGKujTksbWdjjx1H9-40" value="9" style="rounded=1;whiteSpace=wrap;html=1;absoluteArcSize=1;arcSize=30;strokeWidth=2;fontFamily=consolas;fontSize=20;strokeColor=#008FBA;fontColor=#008FBA;fillColor=none;" vertex="1" parent="x_xGGKujTksbWdjjx1H9-1">
          <mxGeometry x="379.81" y="330" width="40" height="40" as="geometry" />
        </mxCell>
        <mxCell id="x_xGGKujTksbWdjjx1H9-41" value="4" style="rounded=1;whiteSpace=wrap;html=1;absoluteArcSize=1;arcSize=30;strokeWidth=2;fontFamily=consolas;fontSize=20;strokeColor=#008FBA;fontColor=#008FBA;fillColor=none;" vertex="1" parent="x_xGGKujTksbWdjjx1H9-1">
          <mxGeometry x="454" y="330" width="40" height="40" as="geometry" />
        </mxCell>
        <mxCell id="x_xGGKujTksbWdjjx1H9-42" value="8" style="rounded=1;whiteSpace=wrap;html=1;absoluteArcSize=1;arcSize=30;strokeWidth=2;fontFamily=consolas;fontSize=20;strokeColor=#008FBA;fontColor=#008FBA;fillColor=none;" vertex="1" parent="x_xGGKujTksbWdjjx1H9-1">
          <mxGeometry x="524" y="330" width="40" height="40" as="geometry" />
        </mxCell>
        <mxCell id="x_xGGKujTksbWdjjx1H9-43" value="1" style="rounded=1;whiteSpace=wrap;html=1;absoluteArcSize=1;arcSize=30;strokeWidth=2;fontFamily=consolas;fontSize=20;strokeColor=#008FBA;fontColor=#008FBA;fillColor=none;" vertex="1" parent="x_xGGKujTksbWdjjx1H9-1">
          <mxGeometry x="99" y="420" width="40" height="40" as="geometry" />
        </mxCell>
        <mxCell id="x_xGGKujTksbWdjjx1H9-44" value="7" style="rounded=1;whiteSpace=wrap;html=1;absoluteArcSize=1;arcSize=30;strokeWidth=2;fontFamily=consolas;fontSize=20;strokeColor=#008FBA;fontColor=#008FBA;fillColor=none;" vertex="1" parent="x_xGGKujTksbWdjjx1H9-1">
          <mxGeometry x="149" y="420" width="40" height="40" as="geometry" />
        </mxCell>
        <mxCell id="x_xGGKujTksbWdjjx1H9-45" value="0" style="rounded=1;whiteSpace=wrap;html=1;absoluteArcSize=1;arcSize=30;strokeWidth=2;fontFamily=consolas;fontSize=20;strokeColor=#008FBA;fontColor=#008FBA;fillColor=none;" vertex="1" parent="x_xGGKujTksbWdjjx1H9-1">
          <mxGeometry x="239.81" y="420" width="40" height="40" as="geometry" />
        </mxCell>
        <mxCell id="x_xGGKujTksbWdjjx1H9-46" value="4" style="rounded=1;whiteSpace=wrap;html=1;absoluteArcSize=1;arcSize=30;strokeWidth=2;fontFamily=consolas;fontSize=20;strokeColor=#008FBA;fontColor=#008FBA;fillColor=none;" vertex="1" parent="x_xGGKujTksbWdjjx1H9-1">
          <mxGeometry x="289" y="420" width="40" height="40" as="geometry" />
        </mxCell>
        <mxCell id="x_xGGKujTksbWdjjx1H9-47" value="4" style="rounded=1;whiteSpace=wrap;html=1;absoluteArcSize=1;arcSize=30;strokeWidth=2;fontFamily=consolas;fontSize=20;strokeColor=#008FBA;fontColor=#008FBA;fillColor=none;" vertex="1" parent="x_xGGKujTksbWdjjx1H9-1">
          <mxGeometry x="389" y="420" width="40" height="40" as="geometry" />
        </mxCell>
        <mxCell id="x_xGGKujTksbWdjjx1H9-48" value="9" style="rounded=1;whiteSpace=wrap;html=1;absoluteArcSize=1;arcSize=30;strokeWidth=2;fontFamily=consolas;fontSize=20;strokeColor=#008FBA;fontColor=#008FBA;fillColor=none;" vertex="1" parent="x_xGGKujTksbWdjjx1H9-1">
          <mxGeometry x="439" y="420" width="40" height="40" as="geometry" />
        </mxCell>
        <mxCell id="x_xGGKujTksbWdjjx1H9-49" value="8" style="rounded=1;whiteSpace=wrap;html=1;absoluteArcSize=1;arcSize=30;strokeWidth=2;fontFamily=consolas;fontSize=20;strokeColor=#008FBA;fontColor=#008FBA;fillColor=none;" vertex="1" parent="x_xGGKujTksbWdjjx1H9-1">
          <mxGeometry x="524" y="420" width="40" height="40" as="geometry" />
        </mxCell>
        <mxCell id="x_xGGKujTksbWdjjx1H9-50" value="" style="endArrow=oval;html=1;rounded=1;strokeWidth=3;strokeColor=#FFD966;startArrow=classic;startFill=1;arcSize=36;endFill=1;" edge="1" parent="x_xGGKujTksbWdjjx1H9-1">
          <mxGeometry width="50" height="50" relative="1" as="geometry">
            <mxPoint x="144" y="410" as="sourcePoint" />
            <mxPoint x="104" y="380" as="targetPoint" />
          </mxGeometry>
        </mxCell>
        <mxCell id="x_xGGKujTksbWdjjx1H9-51" value="" style="endArrow=oval;html=1;rounded=1;strokeWidth=3;strokeColor=#FFD966;startArrow=classic;startFill=1;arcSize=36;endFill=1;" edge="1" parent="x_xGGKujTksbWdjjx1H9-1">
          <mxGeometry width="50" height="50" relative="1" as="geometry">
            <mxPoint x="144" y="410" as="sourcePoint" />
            <mxPoint x="174" y="380" as="targetPoint" />
          </mxGeometry>
        </mxCell>
        <mxCell id="x_xGGKujTksbWdjjx1H9-52" value="0" style="rounded=1;whiteSpace=wrap;html=1;absoluteArcSize=1;arcSize=30;strokeWidth=2;fontFamily=consolas;fontSize=20;strokeColor=#008FBA;fontColor=#008FBA;fillColor=none;" vertex="1" parent="x_xGGKujTksbWdjjx1H9-1">
          <mxGeometry x="124" y="510" width="40" height="40" as="geometry" />
        </mxCell>
        <mxCell id="x_xGGKujTksbWdjjx1H9-53" value="1" style="rounded=1;whiteSpace=wrap;html=1;absoluteArcSize=1;arcSize=30;strokeWidth=2;fontFamily=consolas;fontSize=20;strokeColor=#008FBA;fontColor=#008FBA;fillColor=none;" vertex="1" parent="x_xGGKujTksbWdjjx1H9-1">
          <mxGeometry x="174" y="510" width="40" height="40" as="geometry" />
        </mxCell>
        <mxCell id="x_xGGKujTksbWdjjx1H9-54" value="4" style="rounded=1;whiteSpace=wrap;html=1;absoluteArcSize=1;arcSize=30;strokeWidth=2;fontFamily=consolas;fontSize=20;strokeColor=#008FBA;fontColor=#008FBA;fillColor=none;" vertex="1" parent="x_xGGKujTksbWdjjx1H9-1">
          <mxGeometry x="224" y="510" width="40" height="40" as="geometry" />
        </mxCell>
        <mxCell id="x_xGGKujTksbWdjjx1H9-55" value="7" style="rounded=1;whiteSpace=wrap;html=1;absoluteArcSize=1;arcSize=30;strokeWidth=2;fontFamily=consolas;fontSize=20;strokeColor=#008FBA;fontColor=#008FBA;fillColor=none;" vertex="1" parent="x_xGGKujTksbWdjjx1H9-1">
          <mxGeometry x="274" y="510" width="40" height="40" as="geometry" />
        </mxCell>
        <mxCell id="x_xGGKujTksbWdjjx1H9-56" value="4" style="rounded=1;whiteSpace=wrap;html=1;absoluteArcSize=1;arcSize=30;strokeWidth=2;fontFamily=consolas;fontSize=20;strokeColor=#008FBA;fontColor=#008FBA;fillColor=none;" vertex="1" parent="x_xGGKujTksbWdjjx1H9-1">
          <mxGeometry x="394" y="510" width="40" height="40" as="geometry" />
        </mxCell>
        <mxCell id="x_xGGKujTksbWdjjx1H9-57" value="8" style="rounded=1;whiteSpace=wrap;html=1;absoluteArcSize=1;arcSize=30;strokeWidth=2;fontFamily=consolas;fontSize=20;strokeColor=#008FBA;fontColor=#008FBA;fillColor=none;" vertex="1" parent="x_xGGKujTksbWdjjx1H9-1">
          <mxGeometry x="444" y="510" width="40" height="40" as="geometry" />
        </mxCell>
        <mxCell id="x_xGGKujTksbWdjjx1H9-58" value="9" style="rounded=1;whiteSpace=wrap;html=1;absoluteArcSize=1;arcSize=30;strokeWidth=2;fontFamily=consolas;fontSize=20;strokeColor=#008FBA;fontColor=#008FBA;fillColor=none;" vertex="1" parent="x_xGGKujTksbWdjjx1H9-1">
          <mxGeometry x="493.19" y="510" width="40" height="40" as="geometry" />
        </mxCell>
        <mxCell id="x_xGGKujTksbWdjjx1H9-59" value="0" style="rounded=1;whiteSpace=wrap;html=1;absoluteArcSize=1;arcSize=30;strokeWidth=2;fontFamily=consolas;fontSize=20;strokeColor=#008FBA;fontColor=#008FBA;fillColor=none;" vertex="1" parent="x_xGGKujTksbWdjjx1H9-1">
          <mxGeometry x="164" y="600" width="40" height="40" as="geometry" />
        </mxCell>
        <mxCell id="x_xGGKujTksbWdjjx1H9-60" value="1" style="rounded=1;whiteSpace=wrap;html=1;absoluteArcSize=1;arcSize=30;strokeWidth=2;fontFamily=consolas;fontSize=20;strokeColor=#008FBA;fontColor=#008FBA;fillColor=none;" vertex="1" parent="x_xGGKujTksbWdjjx1H9-1">
          <mxGeometry x="214" y="600" width="40" height="40" as="geometry" />
        </mxCell>
        <mxCell id="x_xGGKujTksbWdjjx1H9-61" value="4" style="rounded=1;whiteSpace=wrap;html=1;absoluteArcSize=1;arcSize=30;strokeWidth=2;fontFamily=consolas;fontSize=20;strokeColor=#008FBA;fontColor=#008FBA;fillColor=none;" vertex="1" parent="x_xGGKujTksbWdjjx1H9-1">
          <mxGeometry x="264" y="600" width="40" height="40" as="geometry" />
        </mxCell>
        <mxCell id="x_xGGKujTksbWdjjx1H9-62" value="4" style="rounded=1;whiteSpace=wrap;html=1;absoluteArcSize=1;arcSize=30;strokeWidth=2;fontFamily=consolas;fontSize=20;strokeColor=#008FBA;fontColor=#008FBA;fillColor=none;" vertex="1" parent="x_xGGKujTksbWdjjx1H9-1">
          <mxGeometry x="314" y="600" width="40" height="40" as="geometry" />
        </mxCell>
        <mxCell id="x_xGGKujTksbWdjjx1H9-63" value="7" style="rounded=1;whiteSpace=wrap;html=1;absoluteArcSize=1;arcSize=30;strokeWidth=2;fontFamily=consolas;fontSize=20;strokeColor=#008FBA;fontColor=#008FBA;fillColor=none;" vertex="1" parent="x_xGGKujTksbWdjjx1H9-1">
          <mxGeometry x="364" y="600" width="40" height="40" as="geometry" />
        </mxCell>
        <mxCell id="x_xGGKujTksbWdjjx1H9-64" value="8" style="rounded=1;whiteSpace=wrap;html=1;absoluteArcSize=1;arcSize=30;strokeWidth=2;fontFamily=consolas;fontSize=20;strokeColor=#008FBA;fontColor=#008FBA;fillColor=none;" vertex="1" parent="x_xGGKujTksbWdjjx1H9-1">
          <mxGeometry x="414" y="600" width="40" height="40" as="geometry" />
        </mxCell>
        <mxCell id="x_xGGKujTksbWdjjx1H9-65" value="9" style="rounded=1;whiteSpace=wrap;html=1;absoluteArcSize=1;arcSize=30;strokeWidth=2;fontFamily=consolas;fontSize=20;strokeColor=#008FBA;fontColor=#008FBA;fillColor=none;" vertex="1" parent="x_xGGKujTksbWdjjx1H9-1">
          <mxGeometry x="463.19" y="600" width="40" height="40" as="geometry" />
        </mxCell>
        <mxCell id="x_xGGKujTksbWdjjx1H9-66" value="" style="endArrow=oval;html=1;rounded=1;strokeWidth=3;strokeColor=#FFD966;startArrow=classic;startFill=1;arcSize=36;endFill=1;" edge="1" parent="x_xGGKujTksbWdjjx1H9-1">
          <mxGeometry width="50" height="50" relative="1" as="geometry">
            <mxPoint x="534" y="230" as="sourcePoint" />
            <mxPoint x="494" y="200" as="targetPoint" />
          </mxGeometry>
        </mxCell>
        <mxCell id="x_xGGKujTksbWdjjx1H9-67" value="" style="endArrow=oval;html=1;rounded=1;strokeWidth=3;strokeColor=#FFD966;startArrow=classic;startFill=1;arcSize=36;endFill=1;" edge="1" parent="x_xGGKujTksbWdjjx1H9-1">
          <mxGeometry width="50" height="50" relative="1" as="geometry">
            <mxPoint x="454" y="230" as="sourcePoint" />
            <mxPoint x="494" y="200" as="targetPoint" />
          </mxGeometry>
        </mxCell>
        <mxCell id="x_xGGKujTksbWdjjx1H9-68" value="" style="endArrow=oval;html=1;rounded=1;strokeWidth=3;strokeColor=#FFD966;startArrow=classic;startFill=1;arcSize=36;endFill=1;" edge="1" parent="x_xGGKujTksbWdjjx1H9-1">
          <mxGeometry width="50" height="50" relative="1" as="geometry">
            <mxPoint x="324" y="320" as="sourcePoint" />
            <mxPoint x="284" y="290" as="targetPoint" />
          </mxGeometry>
        </mxCell>
        <mxCell id="x_xGGKujTksbWdjjx1H9-69" value="" style="endArrow=oval;html=1;rounded=1;strokeWidth=3;strokeColor=#FFD966;startArrow=classic;startFill=1;arcSize=36;endFill=1;" edge="1" parent="x_xGGKujTksbWdjjx1H9-1">
          <mxGeometry width="50" height="50" relative="1" as="geometry">
            <mxPoint x="244" y="320" as="sourcePoint" />
            <mxPoint x="284" y="290" as="targetPoint" />
          </mxGeometry>
        </mxCell>
        <mxCell id="x_xGGKujTksbWdjjx1H9-70" value="" style="endArrow=oval;html=1;rounded=1;strokeWidth=3;strokeColor=#FFD966;startArrow=classic;startFill=1;arcSize=36;endFill=1;" edge="1" parent="x_xGGKujTksbWdjjx1H9-1">
          <mxGeometry width="50" height="50" relative="1" as="geometry">
            <mxPoint x="404" y="320" as="sourcePoint" />
            <mxPoint x="434" y="290" as="targetPoint" />
          </mxGeometry>
        </mxCell>
        <mxCell id="x_xGGKujTksbWdjjx1H9-71" value="" style="endArrow=oval;html=1;rounded=1;strokeWidth=3;strokeColor=#FFD966;startArrow=classic;startFill=1;arcSize=36;endFill=1;" edge="1" parent="x_xGGKujTksbWdjjx1H9-1">
          <mxGeometry width="50" height="50" relative="1" as="geometry">
            <mxPoint x="474" y="320" as="sourcePoint" />
            <mxPoint x="434" y="290" as="targetPoint" />
          </mxGeometry>
        </mxCell>
        <mxCell id="x_xGGKujTksbWdjjx1H9-72" value="" style="endArrow=oval;html=1;rounded=1;strokeWidth=3;strokeColor=#FFD966;startArrow=classic;startFill=1;arcSize=36;endFill=1;" edge="1" parent="x_xGGKujTksbWdjjx1H9-1">
          <mxGeometry width="50" height="50" relative="1" as="geometry">
            <mxPoint x="544" y="320" as="sourcePoint" />
            <mxPoint x="544" y="290" as="targetPoint" />
          </mxGeometry>
        </mxCell>
        <mxCell id="x_xGGKujTksbWdjjx1H9-73" value="" style="endArrow=oval;html=1;rounded=1;strokeWidth=3;strokeColor=#FFD966;startArrow=classic;startFill=1;arcSize=36;endFill=1;" edge="1" parent="x_xGGKujTksbWdjjx1H9-1">
          <mxGeometry width="50" height="50" relative="1" as="geometry">
            <mxPoint x="284" y="410" as="sourcePoint" />
            <mxPoint x="244" y="380" as="targetPoint" />
          </mxGeometry>
        </mxCell>
        <mxCell id="x_xGGKujTksbWdjjx1H9-74" value="" style="endArrow=oval;html=1;rounded=1;strokeWidth=3;strokeColor=#FFD966;startArrow=classic;startFill=1;arcSize=36;endFill=1;" edge="1" parent="x_xGGKujTksbWdjjx1H9-1">
          <mxGeometry width="50" height="50" relative="1" as="geometry">
            <mxPoint x="284" y="410" as="sourcePoint" />
            <mxPoint x="324" y="380" as="targetPoint" />
          </mxGeometry>
        </mxCell>
        <mxCell id="x_xGGKujTksbWdjjx1H9-75" value="" style="endArrow=oval;html=1;rounded=1;strokeWidth=3;strokeColor=#FFD966;startArrow=classic;startFill=1;arcSize=36;endFill=1;" edge="1" parent="x_xGGKujTksbWdjjx1H9-1">
          <mxGeometry width="50" height="50" relative="1" as="geometry">
            <mxPoint x="434" y="410" as="sourcePoint" />
            <mxPoint x="403.19" y="380" as="targetPoint" />
          </mxGeometry>
        </mxCell>
        <mxCell id="x_xGGKujTksbWdjjx1H9-76" value="" style="endArrow=oval;html=1;rounded=1;strokeWidth=3;strokeColor=#FFD966;startArrow=classic;startFill=1;arcSize=36;endFill=1;" edge="1" parent="x_xGGKujTksbWdjjx1H9-1">
          <mxGeometry width="50" height="50" relative="1" as="geometry">
            <mxPoint x="434" y="410" as="sourcePoint" />
            <mxPoint x="474" y="380" as="targetPoint" />
          </mxGeometry>
        </mxCell>
        <mxCell id="x_xGGKujTksbWdjjx1H9-77" value="" style="endArrow=oval;html=1;rounded=1;strokeWidth=3;strokeColor=#FFD966;startArrow=classic;startFill=1;arcSize=36;endFill=1;" edge="1" parent="x_xGGKujTksbWdjjx1H9-1">
          <mxGeometry width="50" height="50" relative="1" as="geometry">
            <mxPoint x="544" y="410" as="sourcePoint" />
            <mxPoint x="544" y="380" as="targetPoint" />
          </mxGeometry>
        </mxCell>
        <mxCell id="x_xGGKujTksbWdjjx1H9-78" value="" style="endArrow=oval;html=1;rounded=1;strokeWidth=3;strokeColor=#FFD966;startArrow=classic;startFill=1;arcSize=36;endFill=1;" edge="1" parent="x_xGGKujTksbWdjjx1H9-1">
          <mxGeometry width="50" height="50" relative="1" as="geometry">
            <mxPoint x="224.81" y="500" as="sourcePoint" />
            <mxPoint x="184.81" y="470" as="targetPoint" />
          </mxGeometry>
        </mxCell>
        <mxCell id="x_xGGKujTksbWdjjx1H9-79" value="" style="endArrow=oval;html=1;rounded=1;strokeWidth=3;strokeColor=#FFD966;startArrow=classic;startFill=1;arcSize=36;endFill=1;" edge="1" parent="x_xGGKujTksbWdjjx1H9-1">
          <mxGeometry width="50" height="50" relative="1" as="geometry">
            <mxPoint x="224.81" y="500" as="sourcePoint" />
            <mxPoint x="254.81" y="470" as="targetPoint" />
          </mxGeometry>
        </mxCell>
        <mxCell id="x_xGGKujTksbWdjjx1H9-80" value="" style="endArrow=oval;html=1;rounded=1;strokeWidth=3;strokeColor=#FFD966;startArrow=classic;startFill=1;arcSize=36;endFill=1;" edge="1" parent="x_xGGKujTksbWdjjx1H9-1">
          <mxGeometry width="50" height="50" relative="1" as="geometry">
            <mxPoint x="484" y="500" as="sourcePoint" />
            <mxPoint x="444" y="470" as="targetPoint" />
          </mxGeometry>
        </mxCell>
        <mxCell id="x_xGGKujTksbWdjjx1H9-81" value="" style="endArrow=oval;html=1;rounded=1;strokeWidth=3;strokeColor=#FFD966;startArrow=classic;startFill=1;arcSize=36;endFill=1;" edge="1" parent="x_xGGKujTksbWdjjx1H9-1">
          <mxGeometry width="50" height="50" relative="1" as="geometry">
            <mxPoint x="484" y="500" as="sourcePoint" />
            <mxPoint x="524" y="470" as="targetPoint" />
          </mxGeometry>
        </mxCell>
        <mxCell id="x_xGGKujTksbWdjjx1H9-82" value="" style="endArrow=oval;html=1;rounded=1;strokeWidth=3;strokeColor=#FFD966;startArrow=classic;startFill=1;arcSize=36;endFill=1;" edge="1" parent="x_xGGKujTksbWdjjx1H9-1">
          <mxGeometry width="50" height="50" relative="1" as="geometry">
            <mxPoint x="354" y="590" as="sourcePoint" />
            <mxPoint x="314" y="560" as="targetPoint" />
          </mxGeometry>
        </mxCell>
        <mxCell id="x_xGGKujTksbWdjjx1H9-83" value="" style="endArrow=oval;html=1;rounded=1;strokeWidth=3;strokeColor=#FFD966;startArrow=classic;startFill=1;arcSize=36;endFill=1;" edge="1" parent="x_xGGKujTksbWdjjx1H9-1">
          <mxGeometry width="50" height="50" relative="1" as="geometry">
            <mxPoint x="354" y="590" as="sourcePoint" />
            <mxPoint x="394" y="560" as="targetPoint" />
          </mxGeometry>
        </mxCell>
        <mxCell id="x_xGGKujTksbWdjjx1H9-84" value="1" style="ellipse;whiteSpace=wrap;html=1;aspect=fixed;strokeWidth=2;fontFamily=Tahoma;spacingBottom=0;spacingRight=0;strokeColor=#FFD966;fillColor=#ffe6cc;fontColor=#FF8000;spacing=0;verticalAlign=middle;align=center;fontSize=16;" vertex="1" parent="x_xGGKujTksbWdjjx1H9-1">
          <mxGeometry x="289" y="110.25" width="26" height="26" as="geometry" />
        </mxCell>
        <mxCell id="x_xGGKujTksbWdjjx1H9-85" value="10" style="ellipse;whiteSpace=wrap;html=1;aspect=fixed;strokeWidth=2;fontFamily=Tahoma;spacingBottom=0;spacingRight=0;strokeColor=#FFD966;fillColor=#ffe6cc;fontColor=#FF8000;spacing=0;verticalAlign=middle;align=center;fontSize=16;" vertex="1" parent="x_xGGKujTksbWdjjx1H9-1">
          <mxGeometry x="378" y="390" width="26" height="26" as="geometry" />
        </mxCell>
        <mxCell id="x_xGGKujTksbWdjjx1H9-86" value="5" style="ellipse;whiteSpace=wrap;html=1;aspect=fixed;strokeWidth=2;fontFamily=Tahoma;spacingBottom=0;spacingRight=0;strokeColor=#FFD966;fillColor=#ffe6cc;fontColor=#FF8000;spacing=0;verticalAlign=middle;align=center;fontSize=16;" vertex="1" parent="x_xGGKujTksbWdjjx1H9-1">
          <mxGeometry x="219.81" y="290" width="26" height="26" as="geometry" />
        </mxCell>
        <mxCell id="x_xGGKujTksbWdjjx1H9-87" value="9" style="ellipse;whiteSpace=wrap;html=1;aspect=fixed;strokeWidth=2;fontFamily=Tahoma;spacingBottom=0;spacingRight=0;strokeColor=#FFD966;fillColor=#ffe6cc;fontColor=#FF8000;spacing=0;verticalAlign=middle;align=center;fontSize=16;" vertex="1" parent="x_xGGKujTksbWdjjx1H9-1">
          <mxGeometry x="378" y="290" width="26" height="26" as="geometry" />
        </mxCell>
        <mxCell id="x_xGGKujTksbWdjjx1H9-88" value="8" style="ellipse;whiteSpace=wrap;html=1;aspect=fixed;strokeWidth=2;fontFamily=Tahoma;spacingBottom=0;spacingRight=0;strokeColor=#FFD966;fillColor=#ffe6cc;fontColor=#FF8000;spacing=0;verticalAlign=middle;align=center;fontSize=16;" vertex="1" parent="x_xGGKujTksbWdjjx1H9-1">
          <mxGeometry x="428" y="200" width="26" height="26" as="geometry" />
        </mxCell>
        <mxCell id="x_xGGKujTksbWdjjx1H9-89" value="7" style="ellipse;whiteSpace=wrap;html=1;aspect=fixed;strokeWidth=2;fontFamily=Tahoma;spacingBottom=0;spacingRight=0;strokeColor=#FFD966;fillColor=#ffe6cc;fontColor=#FF8000;spacing=0;verticalAlign=middle;align=center;fontSize=16;" vertex="1" parent="x_xGGKujTksbWdjjx1H9-1">
          <mxGeometry x="163" y="480" width="26" height="26" as="geometry" />
        </mxCell>
        <mxCell id="x_xGGKujTksbWdjjx1H9-90" value="3" style="ellipse;whiteSpace=wrap;html=1;aspect=fixed;strokeWidth=2;fontFamily=Tahoma;spacingBottom=0;spacingRight=0;strokeColor=#FFD966;fillColor=#ffe6cc;fontColor=#FF8000;spacing=0;verticalAlign=middle;align=center;fontSize=16;" vertex="1" parent="x_xGGKujTksbWdjjx1H9-1">
          <mxGeometry x="80" y="290" width="26" height="26" as="geometry" />
        </mxCell>
        <mxCell id="x_xGGKujTksbWdjjx1H9-91" value="6" style="ellipse;whiteSpace=wrap;html=1;aspect=fixed;strokeWidth=2;fontFamily=Tahoma;spacingBottom=0;spacingRight=0;strokeColor=#FFD966;fillColor=#ffe6cc;fontColor=#FF8000;spacing=0;verticalAlign=middle;align=center;fontSize=16;" vertex="1" parent="x_xGGKujTksbWdjjx1H9-1">
          <mxGeometry x="221" y="390" width="26" height="26" as="geometry" />
        </mxCell>
        <mxCell id="x_xGGKujTksbWdjjx1H9-92" value="2" style="ellipse;whiteSpace=wrap;html=1;aspect=fixed;strokeWidth=2;fontFamily=Tahoma;spacingBottom=0;spacingRight=0;strokeColor=#FFD966;fillColor=#ffe6cc;fontColor=#FF8000;spacing=0;verticalAlign=middle;align=center;fontSize=16;" vertex="1" parent="x_xGGKujTksbWdjjx1H9-1">
          <mxGeometry x="148" y="200" width="26" height="26" as="geometry" />
        </mxCell>
        <mxCell id="x_xGGKujTksbWdjjx1H9-93" value="4" style="ellipse;whiteSpace=wrap;html=1;aspect=fixed;strokeWidth=2;fontFamily=Tahoma;spacingBottom=0;spacingRight=0;strokeColor=#FFD966;fillColor=#ffe6cc;fontColor=#FF8000;spacing=0;verticalAlign=middle;align=center;fontSize=16;" vertex="1" parent="x_xGGKujTksbWdjjx1H9-1">
          <mxGeometry x="80" y="390" width="26" height="26" as="geometry" />
        </mxCell>
        <mxCell id="x_xGGKujTksbWdjjx1H9-94" value="12" style="ellipse;whiteSpace=wrap;html=1;aspect=fixed;strokeWidth=2;fontFamily=Tahoma;spacingBottom=0;spacingRight=0;strokeColor=#FFD966;fillColor=#ffe6cc;fontColor=#FF8000;spacing=0;verticalAlign=middle;align=center;fontSize=16;" vertex="1" parent="x_xGGKujTksbWdjjx1H9-1">
          <mxGeometry x="289" y="570" width="26" height="26" as="geometry" />
        </mxCell>
        <mxCell id="x_xGGKujTksbWdjjx1H9-95" value="11" style="ellipse;whiteSpace=wrap;html=1;aspect=fixed;strokeWidth=2;fontFamily=Tahoma;spacingBottom=0;spacingRight=0;strokeColor=#FFD966;fillColor=#ffe6cc;fontColor=#FF8000;spacing=0;verticalAlign=middle;align=center;fontSize=16;" vertex="1" parent="x_xGGKujTksbWdjjx1H9-1">
          <mxGeometry x="428" y="480" width="26" height="26" as="geometry" />
        </mxCell>
      </root>
    </mxGraphModel>
  </diagram>
  <diagram name="quick-sort-demo" id="Rm9ucK-gVjA5cCSFmpDu">
    <mxGraphModel dx="1037" dy="758" grid="1" gridSize="10" guides="1" tooltips="1" connect="1" arrows="1" fold="1" page="1" pageScale="1" pageWidth="850" pageHeight="1100" math="0" shadow="0">
      <root>
        <mxCell id="hlnnurXQgWliRMU68Yvq-0" />
        <mxCell id="hlnnurXQgWliRMU68Yvq-1" parent="hlnnurXQgWliRMU68Yvq-0" />
        <mxCell id="hlnnurXQgWliRMU68Yvq-2" value="1" style="rounded=1;whiteSpace=wrap;html=1;absoluteArcSize=1;arcSize=30;strokeWidth=2;fontFamily=consolas;fontSize=20;strokeColor=#008FBA;fontColor=#008FBA;fillColor=none;" parent="hlnnurXQgWliRMU68Yvq-1" vertex="1">
          <mxGeometry x="240" y="47.5" width="40" height="40" as="geometry" />
        </mxCell>
        <mxCell id="hlnnurXQgWliRMU68Yvq-3" value="0" style="rounded=1;whiteSpace=wrap;html=1;absoluteArcSize=1;arcSize=14;strokeWidth=2;fontFamily=consolas;fontSize=20;strokeColor=none;fontColor=#000000;fillColor=none;" parent="hlnnurXQgWliRMU68Yvq-1" vertex="1">
          <mxGeometry x="245.81" y="20" width="28.38" height="27.5" as="geometry" />
        </mxCell>
        <mxCell id="hlnnurXQgWliRMU68Yvq-4" value="7" style="rounded=1;whiteSpace=wrap;html=1;absoluteArcSize=1;arcSize=30;strokeWidth=2;fontFamily=consolas;fontSize=20;strokeColor=#008FBA;fontColor=#008FBA;fillColor=none;" parent="hlnnurXQgWliRMU68Yvq-1" vertex="1">
          <mxGeometry x="290" y="47.5" width="40" height="40" as="geometry" />
        </mxCell>
        <mxCell id="hlnnurXQgWliRMU68Yvq-5" value="4" style="rounded=1;whiteSpace=wrap;html=1;absoluteArcSize=1;arcSize=30;strokeWidth=2;fontFamily=consolas;fontSize=20;strokeColor=#008FBA;fontColor=#008FBA;fillColor=none;" parent="hlnnurXQgWliRMU68Yvq-1" vertex="1">
          <mxGeometry x="340" y="47.5" width="40" height="40" as="geometry" />
        </mxCell>
        <mxCell id="hlnnurXQgWliRMU68Yvq-6" value="0" style="rounded=1;whiteSpace=wrap;html=1;absoluteArcSize=1;arcSize=30;strokeWidth=2;fontFamily=consolas;fontSize=20;strokeColor=#008FBA;fontColor=#008FBA;fillColor=none;" parent="hlnnurXQgWliRMU68Yvq-1" vertex="1">
          <mxGeometry x="390" y="47.5" width="40" height="40" as="geometry" />
        </mxCell>
        <mxCell id="hlnnurXQgWliRMU68Yvq-7" value="9" style="rounded=1;whiteSpace=wrap;html=1;absoluteArcSize=1;arcSize=30;strokeWidth=2;fontFamily=consolas;fontSize=20;strokeColor=#008FBA;fontColor=#008FBA;fillColor=none;" parent="hlnnurXQgWliRMU68Yvq-1" vertex="1">
          <mxGeometry x="440" y="47.5" width="40" height="40" as="geometry" />
        </mxCell>
        <mxCell id="hlnnurXQgWliRMU68Yvq-8" value="4" style="rounded=1;whiteSpace=wrap;html=1;absoluteArcSize=1;arcSize=30;strokeWidth=2;fontFamily=consolas;fontSize=20;strokeColor=#008FBA;fontColor=#008FBA;fillColor=none;" parent="hlnnurXQgWliRMU68Yvq-1" vertex="1">
          <mxGeometry x="490" y="47.5" width="40" height="40" as="geometry" />
        </mxCell>
        <mxCell id="hlnnurXQgWliRMU68Yvq-9" value="8" style="rounded=1;whiteSpace=wrap;html=1;absoluteArcSize=1;arcSize=30;strokeWidth=2;fontFamily=consolas;fontSize=20;strokeColor=#008FBA;fontColor=#008FBA;fillColor=default;" parent="hlnnurXQgWliRMU68Yvq-1" vertex="1">
          <mxGeometry x="539.19" y="47.5" width="40" height="40" as="geometry" />
        </mxCell>
        <mxCell id="hlnnurXQgWliRMU68Yvq-10" value="1" style="rounded=1;whiteSpace=wrap;html=1;absoluteArcSize=1;arcSize=14;strokeWidth=2;fontFamily=consolas;fontSize=20;strokeColor=none;fontColor=#000000;fillColor=none;" parent="hlnnurXQgWliRMU68Yvq-1" vertex="1">
          <mxGeometry x="295.81" y="20" width="28.38" height="27.5" as="geometry" />
        </mxCell>
        <mxCell id="hlnnurXQgWliRMU68Yvq-11" value="2" style="rounded=1;whiteSpace=wrap;html=1;absoluteArcSize=1;arcSize=14;strokeWidth=2;fontFamily=consolas;fontSize=20;strokeColor=none;fontColor=#000000;fillColor=none;" parent="hlnnurXQgWliRMU68Yvq-1" vertex="1">
          <mxGeometry x="345.81" y="20" width="28.38" height="27.5" as="geometry" />
        </mxCell>
        <mxCell id="hlnnurXQgWliRMU68Yvq-12" value="3" style="rounded=1;whiteSpace=wrap;html=1;absoluteArcSize=1;arcSize=14;strokeWidth=2;fontFamily=consolas;fontSize=20;strokeColor=none;fontColor=#000000;fillColor=none;" parent="hlnnurXQgWliRMU68Yvq-1" vertex="1">
          <mxGeometry x="395.81" y="20" width="28.38" height="27.5" as="geometry" />
        </mxCell>
        <mxCell id="hlnnurXQgWliRMU68Yvq-13" value="4" style="rounded=1;whiteSpace=wrap;html=1;absoluteArcSize=1;arcSize=14;strokeWidth=2;fontFamily=consolas;fontSize=20;strokeColor=none;fontColor=#000000;fillColor=none;" parent="hlnnurXQgWliRMU68Yvq-1" vertex="1">
          <mxGeometry x="445.81" y="20" width="28.38" height="27.5" as="geometry" />
        </mxCell>
        <mxCell id="hlnnurXQgWliRMU68Yvq-14" value="5" style="rounded=1;whiteSpace=wrap;html=1;absoluteArcSize=1;arcSize=14;strokeWidth=2;fontFamily=consolas;fontSize=20;strokeColor=none;fontColor=#000000;fillColor=none;" parent="hlnnurXQgWliRMU68Yvq-1" vertex="1">
          <mxGeometry x="495.81" y="20" width="28.38" height="27.5" as="geometry" />
        </mxCell>
        <mxCell id="hlnnurXQgWliRMU68Yvq-15" value="6" style="rounded=1;whiteSpace=wrap;html=1;absoluteArcSize=1;arcSize=14;strokeWidth=2;fontFamily=consolas;fontSize=20;strokeColor=none;fontColor=#000000;fillColor=none;" parent="hlnnurXQgWliRMU68Yvq-1" vertex="1">
          <mxGeometry x="545" y="20" width="28.38" height="27.5" as="geometry" />
        </mxCell>
        <mxCell id="3w9AZ39u-1McmezTFxoN-0" value="1" style="rounded=1;whiteSpace=wrap;html=1;absoluteArcSize=1;arcSize=30;strokeWidth=2;fontFamily=consolas;fontSize=20;strokeColor=#008FBA;fontColor=#008FBA;fillColor=none;" parent="hlnnurXQgWliRMU68Yvq-1" vertex="1">
          <mxGeometry x="240.4" y="110" width="40" height="40" as="geometry" />
        </mxCell>
        <mxCell id="3w9AZ39u-1McmezTFxoN-1" value="7" style="rounded=1;whiteSpace=wrap;html=1;absoluteArcSize=1;arcSize=30;strokeWidth=2;fontFamily=consolas;fontSize=20;strokeColor=#008FBA;fontColor=#008FBA;fillColor=none;" parent="hlnnurXQgWliRMU68Yvq-1" vertex="1">
          <mxGeometry x="290.4" y="110" width="40" height="40" as="geometry" />
        </mxCell>
        <mxCell id="3w9AZ39u-1McmezTFxoN-2" value="4" style="rounded=1;whiteSpace=wrap;html=1;absoluteArcSize=1;arcSize=30;strokeWidth=2;fontFamily=consolas;fontSize=20;strokeColor=#008FBA;fontColor=#008FBA;fillColor=none;" parent="hlnnurXQgWliRMU68Yvq-1" vertex="1">
          <mxGeometry x="340.4" y="110" width="40" height="40" as="geometry" />
        </mxCell>
        <mxCell id="3w9AZ39u-1McmezTFxoN-3" value="0" style="rounded=1;whiteSpace=wrap;html=1;absoluteArcSize=1;arcSize=30;strokeWidth=2;fontFamily=consolas;fontSize=20;strokeColor=#008FBA;fontColor=#008FBA;fillColor=none;" parent="hlnnurXQgWliRMU68Yvq-1" vertex="1">
          <mxGeometry x="390.4" y="110" width="40" height="40" as="geometry" />
        </mxCell>
        <mxCell id="3w9AZ39u-1McmezTFxoN-4" value="9" style="rounded=1;whiteSpace=wrap;html=1;absoluteArcSize=1;arcSize=30;strokeWidth=2;fontFamily=consolas;fontSize=20;strokeColor=#008FBA;fontColor=#008FBA;fillColor=none;" parent="hlnnurXQgWliRMU68Yvq-1" vertex="1">
          <mxGeometry x="440.4" y="110" width="40" height="40" as="geometry" />
        </mxCell>
        <mxCell id="3w9AZ39u-1McmezTFxoN-5" value="4" style="rounded=1;whiteSpace=wrap;html=1;absoluteArcSize=1;arcSize=30;strokeWidth=2;fontFamily=consolas;fontSize=20;strokeColor=#008FBA;fontColor=#008FBA;fillColor=none;" parent="hlnnurXQgWliRMU68Yvq-1" vertex="1">
          <mxGeometry x="490.4" y="110" width="40" height="40" as="geometry" />
        </mxCell>
        <mxCell id="3w9AZ39u-1McmezTFxoN-6" value="8" style="rounded=1;whiteSpace=wrap;html=1;absoluteArcSize=1;arcSize=30;strokeWidth=2;fontFamily=consolas;fontSize=20;strokeColor=none;fontColor=#FFFFFF;fillColor=#FFD966;" parent="hlnnurXQgWliRMU68Yvq-1" vertex="1">
          <mxGeometry x="539.5899999999999" y="110" width="40" height="40" as="geometry" />
        </mxCell>
        <mxCell id="3w9AZ39u-1McmezTFxoN-7" value="1" style="rounded=1;whiteSpace=wrap;html=1;absoluteArcSize=1;arcSize=30;strokeWidth=2;fontFamily=consolas;fontSize=20;strokeColor=#008FBA;fontColor=#008FBA;fillColor=none;" parent="hlnnurXQgWliRMU68Yvq-1" vertex="1">
          <mxGeometry x="290.4" y="160" width="40" height="40" as="geometry" />
        </mxCell>
        <mxCell id="3w9AZ39u-1McmezTFxoN-8" value="7" style="rounded=1;whiteSpace=wrap;html=1;absoluteArcSize=1;arcSize=30;strokeWidth=2;fontFamily=consolas;fontSize=20;strokeColor=#008FBA;fontColor=#008FBA;fillColor=none;" parent="hlnnurXQgWliRMU68Yvq-1" vertex="1">
          <mxGeometry x="340.4" y="160" width="40" height="40" as="geometry" />
        </mxCell>
        <mxCell id="3w9AZ39u-1McmezTFxoN-9" value="4" style="rounded=1;whiteSpace=wrap;html=1;absoluteArcSize=1;arcSize=30;strokeWidth=2;fontFamily=consolas;fontSize=20;strokeColor=#008FBA;fontColor=#008FBA;fillColor=none;" parent="hlnnurXQgWliRMU68Yvq-1" vertex="1">
          <mxGeometry x="390.4" y="160" width="40" height="40" as="geometry" />
        </mxCell>
        <mxCell id="3w9AZ39u-1McmezTFxoN-10" value="0" style="rounded=1;whiteSpace=wrap;html=1;absoluteArcSize=1;arcSize=30;strokeWidth=2;fontFamily=consolas;fontSize=20;strokeColor=#008FBA;fontColor=#008FBA;fillColor=none;" parent="hlnnurXQgWliRMU68Yvq-1" vertex="1">
          <mxGeometry x="440.4" y="160" width="40" height="40" as="geometry" />
        </mxCell>
        <mxCell id="3w9AZ39u-1McmezTFxoN-11" value="4" style="rounded=1;whiteSpace=wrap;html=1;absoluteArcSize=1;arcSize=30;strokeWidth=2;fontFamily=consolas;fontSize=20;strokeColor=#008FBA;fontColor=#008FBA;fillColor=none;" parent="hlnnurXQgWliRMU68Yvq-1" vertex="1">
          <mxGeometry x="490.4" y="160" width="40" height="40" as="geometry" />
        </mxCell>
        <mxCell id="3w9AZ39u-1McmezTFxoN-12" value="9" style="rounded=1;whiteSpace=wrap;html=1;absoluteArcSize=1;arcSize=30;strokeWidth=2;fontFamily=consolas;fontSize=20;strokeColor=#008FBA;fontColor=#008FBA;fillColor=none;" parent="hlnnurXQgWliRMU68Yvq-1" vertex="1">
          <mxGeometry x="590.4" y="160" width="40" height="40" as="geometry" />
        </mxCell>
        <mxCell id="3w9AZ39u-1McmezTFxoN-13" value="8" style="rounded=1;whiteSpace=wrap;html=1;absoluteArcSize=1;arcSize=30;strokeWidth=2;fontFamily=consolas;fontSize=20;strokeColor=none;fontColor=#FFFFFF;fillColor=#FFD966;" parent="hlnnurXQgWliRMU68Yvq-1" vertex="1">
          <mxGeometry x="539.1899999999999" y="160" width="40" height="40" as="geometry" />
        </mxCell>
        <mxCell id="3w9AZ39u-1McmezTFxoN-14" value="1" style="rounded=1;whiteSpace=wrap;html=1;absoluteArcSize=1;arcSize=30;strokeWidth=2;fontFamily=consolas;fontSize=20;strokeColor=#008FBA;fontColor=#008FBA;fillColor=none;" parent="hlnnurXQgWliRMU68Yvq-1" vertex="1">
          <mxGeometry x="240" y="220" width="40" height="40" as="geometry" />
        </mxCell>
        <mxCell id="3w9AZ39u-1McmezTFxoN-15" value="7" style="rounded=1;whiteSpace=wrap;html=1;absoluteArcSize=1;arcSize=30;strokeWidth=2;fontFamily=consolas;fontSize=20;strokeColor=#008FBA;fontColor=#008FBA;fillColor=none;" parent="hlnnurXQgWliRMU68Yvq-1" vertex="1">
          <mxGeometry x="290" y="220" width="40" height="40" as="geometry" />
        </mxCell>
        <mxCell id="3w9AZ39u-1McmezTFxoN-16" value="4" style="rounded=1;whiteSpace=wrap;html=1;absoluteArcSize=1;arcSize=30;strokeWidth=2;fontFamily=consolas;fontSize=20;strokeColor=#008FBA;fontColor=#008FBA;fillColor=none;" parent="hlnnurXQgWliRMU68Yvq-1" vertex="1">
          <mxGeometry x="340" y="220" width="40" height="40" as="geometry" />
        </mxCell>
        <mxCell id="3w9AZ39u-1McmezTFxoN-17" value="0" style="rounded=1;whiteSpace=wrap;html=1;absoluteArcSize=1;arcSize=30;strokeWidth=2;fontFamily=consolas;fontSize=20;strokeColor=#008FBA;fontColor=#008FBA;fillColor=none;" parent="hlnnurXQgWliRMU68Yvq-1" vertex="1">
          <mxGeometry x="390" y="220" width="40" height="40" as="geometry" />
        </mxCell>
        <mxCell id="3w9AZ39u-1McmezTFxoN-18" value="4" style="rounded=1;whiteSpace=wrap;html=1;absoluteArcSize=1;arcSize=30;strokeWidth=2;fontFamily=consolas;fontSize=20;strokeColor=none;fontColor=#FFFFFF;fillColor=#FFD966;" parent="hlnnurXQgWliRMU68Yvq-1" vertex="1">
          <mxGeometry x="441" y="220" width="40" height="40" as="geometry" />
        </mxCell>
        <mxCell id="3w9AZ39u-1McmezTFxoN-19" value="1" style="rounded=1;whiteSpace=wrap;html=1;absoluteArcSize=1;arcSize=30;strokeWidth=2;fontFamily=consolas;fontSize=20;strokeColor=#008FBA;fontColor=#008FBA;fillColor=none;" parent="hlnnurXQgWliRMU68Yvq-1" vertex="1">
          <mxGeometry x="290" y="270" width="40" height="40" as="geometry" />
        </mxCell>
        <mxCell id="3w9AZ39u-1McmezTFxoN-20" value="7" style="rounded=1;whiteSpace=wrap;html=1;absoluteArcSize=1;arcSize=30;strokeWidth=2;fontFamily=consolas;fontSize=20;strokeColor=#008FBA;fontColor=#008FBA;fillColor=none;" parent="hlnnurXQgWliRMU68Yvq-1" vertex="1">
          <mxGeometry x="487.99" y="270" width="40" height="40" as="geometry" />
        </mxCell>
        <mxCell id="3w9AZ39u-1McmezTFxoN-21" value="4" style="rounded=1;whiteSpace=wrap;html=1;absoluteArcSize=1;arcSize=30;strokeWidth=2;fontFamily=consolas;fontSize=20;strokeColor=#008FBA;fontColor=#008FBA;fillColor=none;" parent="hlnnurXQgWliRMU68Yvq-1" vertex="1">
          <mxGeometry x="339.6000000000001" y="270" width="40" height="40" as="geometry" />
        </mxCell>
        <mxCell id="3w9AZ39u-1McmezTFxoN-22" value="0" style="rounded=1;whiteSpace=wrap;html=1;absoluteArcSize=1;arcSize=30;strokeWidth=2;fontFamily=consolas;fontSize=20;strokeColor=#008FBA;fontColor=#008FBA;fillColor=none;" parent="hlnnurXQgWliRMU68Yvq-1" vertex="1">
          <mxGeometry x="389.6000000000001" y="270" width="40" height="40" as="geometry" />
        </mxCell>
        <mxCell id="3w9AZ39u-1McmezTFxoN-23" value="4" style="rounded=1;whiteSpace=wrap;html=1;absoluteArcSize=1;arcSize=30;strokeWidth=2;fontFamily=consolas;fontSize=20;strokeColor=none;fontColor=#FFFFFF;fillColor=#FFD966;" parent="hlnnurXQgWliRMU68Yvq-1" vertex="1">
          <mxGeometry x="441.00000000000006" y="270" width="40" height="40" as="geometry" />
        </mxCell>
        <mxCell id="3w9AZ39u-1McmezTFxoN-24" value="1" style="rounded=1;whiteSpace=wrap;html=1;absoluteArcSize=1;arcSize=30;strokeWidth=2;fontFamily=consolas;fontSize=20;strokeColor=#008FBA;fontColor=#008FBA;fillColor=none;" parent="hlnnurXQgWliRMU68Yvq-1" vertex="1">
          <mxGeometry x="239.99999999999994" y="330" width="40" height="40" as="geometry" />
        </mxCell>
        <mxCell id="3w9AZ39u-1McmezTFxoN-25" value="4" style="rounded=1;whiteSpace=wrap;html=1;absoluteArcSize=1;arcSize=30;strokeWidth=2;fontFamily=consolas;fontSize=20;strokeColor=#008FBA;fontColor=#008FBA;fillColor=none;" parent="hlnnurXQgWliRMU68Yvq-1" vertex="1">
          <mxGeometry x="289.59999999999997" y="330" width="40" height="40" as="geometry" />
        </mxCell>
        <mxCell id="3w9AZ39u-1McmezTFxoN-26" value="0" style="rounded=1;whiteSpace=wrap;html=1;absoluteArcSize=1;arcSize=30;strokeWidth=2;fontFamily=consolas;fontSize=20;strokeColor=none;fontColor=#FFFFFF;fillColor=#FFD966;" parent="hlnnurXQgWliRMU68Yvq-1" vertex="1">
          <mxGeometry x="339.59999999999997" y="330" width="40" height="40" as="geometry" />
        </mxCell>
        <mxCell id="3w9AZ39u-1McmezTFxoN-29" value="0" style="rounded=1;whiteSpace=wrap;html=1;absoluteArcSize=1;arcSize=30;strokeWidth=2;fontFamily=consolas;fontSize=20;strokeColor=none;fontColor=#FFFFFF;fillColor=#FFD966;" parent="hlnnurXQgWliRMU68Yvq-1" vertex="1">
          <mxGeometry x="338.4" y="380" width="40" height="40" as="geometry" />
        </mxCell>
        <mxCell id="3w9AZ39u-1McmezTFxoN-30" value="1" style="rounded=1;whiteSpace=wrap;html=1;absoluteArcSize=1;arcSize=30;strokeWidth=2;fontFamily=consolas;fontSize=20;strokeColor=#008FBA;fontColor=#008FBA;fillColor=none;" parent="hlnnurXQgWliRMU68Yvq-1" vertex="1">
          <mxGeometry x="439.59999999999997" y="380" width="40" height="40" as="geometry" />
        </mxCell>
        <mxCell id="3w9AZ39u-1McmezTFxoN-31" value="4" style="rounded=1;whiteSpace=wrap;html=1;absoluteArcSize=1;arcSize=30;strokeWidth=2;fontFamily=consolas;fontSize=20;strokeColor=#008FBA;fontColor=#008FBA;fillColor=none;" parent="hlnnurXQgWliRMU68Yvq-1" vertex="1">
          <mxGeometry x="389.59999999999997" y="380" width="40" height="40" as="geometry" />
        </mxCell>
        <mxCell id="3w9AZ39u-1McmezTFxoN-32" value="1" style="rounded=1;whiteSpace=wrap;html=1;absoluteArcSize=1;arcSize=30;strokeWidth=2;fontFamily=consolas;fontSize=20;strokeColor=none;fontColor=#FFFFFF;fillColor=#FFD966;" parent="hlnnurXQgWliRMU68Yvq-1" vertex="1">
          <mxGeometry x="290.00000000000006" y="440" width="40" height="40" as="geometry" />
        </mxCell>
        <mxCell id="3w9AZ39u-1McmezTFxoN-33" value="4" style="rounded=1;whiteSpace=wrap;html=1;absoluteArcSize=1;arcSize=30;strokeWidth=2;fontFamily=consolas;fontSize=20;strokeColor=#008FBA;fontColor=#008FBA;fillColor=none;" parent="hlnnurXQgWliRMU68Yvq-1" vertex="1">
          <mxGeometry x="240.00000000000006" y="440" width="40" height="40" as="geometry" />
        </mxCell>
        <mxCell id="3w9AZ39u-1McmezTFxoN-34" value="1" style="rounded=1;whiteSpace=wrap;html=1;absoluteArcSize=1;arcSize=30;strokeWidth=2;fontFamily=consolas;fontSize=20;strokeColor=none;fontColor=#FFFFFF;fillColor=#FFD966;" parent="hlnnurXQgWliRMU68Yvq-1" vertex="1">
          <mxGeometry x="288.9900000000001" y="490" width="40" height="40" as="geometry" />
        </mxCell>
        <mxCell id="3w9AZ39u-1McmezTFxoN-36" value="4" style="rounded=1;whiteSpace=wrap;html=1;absoluteArcSize=1;arcSize=30;strokeWidth=2;fontFamily=consolas;fontSize=20;strokeColor=#008FBA;fontColor=#008FBA;fillColor=none;" parent="hlnnurXQgWliRMU68Yvq-1" vertex="1">
          <mxGeometry x="340.2" y="490" width="40" height="40" as="geometry" />
        </mxCell>
        <mxCell id="3w9AZ39u-1McmezTFxoN-38" value="Phân hoạch với pivot = 8" style="rounded=1;whiteSpace=wrap;html=1;absoluteArcSize=1;arcSize=14;strokeWidth=2;fontFamily=Times New Roman;fontSize=20;strokeColor=none;fontColor=#000000;fillColor=none;movable=1;resizable=1;rotatable=1;deletable=1;editable=1;locked=0;connectable=1;align=left;" parent="hlnnurXQgWliRMU68Yvq-1" vertex="1">
          <mxGeometry x="10" y="110" width="210" height="40" as="geometry" />
        </mxCell>
        <mxCell id="3w9AZ39u-1McmezTFxoN-39" value="Phân hoạch với pivot = 4" style="rounded=1;whiteSpace=wrap;html=1;absoluteArcSize=1;arcSize=14;strokeWidth=2;fontFamily=Times New Roman;fontSize=20;strokeColor=none;fontColor=#000000;fillColor=none;movable=1;resizable=1;rotatable=1;deletable=1;editable=1;locked=0;connectable=1;align=left;" parent="hlnnurXQgWliRMU68Yvq-1" vertex="1">
          <mxGeometry x="10" y="220" width="210" height="40" as="geometry" />
        </mxCell>
        <mxCell id="3w9AZ39u-1McmezTFxoN-40" value="Phân hoạch với pivot = 0" style="rounded=1;whiteSpace=wrap;html=1;absoluteArcSize=1;arcSize=14;strokeWidth=2;fontFamily=Times New Roman;fontSize=20;strokeColor=none;fontColor=#000000;fillColor=none;movable=1;resizable=1;rotatable=1;deletable=1;editable=1;locked=0;connectable=1;align=left;" parent="hlnnurXQgWliRMU68Yvq-1" vertex="1">
          <mxGeometry x="10" y="330" width="210" height="40" as="geometry" />
        </mxCell>
        <mxCell id="3w9AZ39u-1McmezTFxoN-41" value="Phân hoạch với pivot = 1" style="rounded=1;whiteSpace=wrap;html=1;absoluteArcSize=1;arcSize=14;strokeWidth=2;fontFamily=Times New Roman;fontSize=20;strokeColor=none;fontColor=#000000;fillColor=none;movable=1;resizable=1;rotatable=1;deletable=1;editable=1;locked=0;connectable=1;align=left;" parent="hlnnurXQgWliRMU68Yvq-1" vertex="1">
          <mxGeometry x="10" y="440" width="210" height="40" as="geometry" />
        </mxCell>
      </root>
    </mxGraphModel>
  </diagram>
  <diagram name="quick-sort-demo-2024-09-08" id="6lWdfAmwBHkfkujfTUZO">
    <mxGraphModel dx="864" dy="632" grid="1" gridSize="10" guides="1" tooltips="1" connect="1" arrows="1" fold="1" page="1" pageScale="1" pageWidth="850" pageHeight="1100" math="0" shadow="0">
      <root>
        <mxCell id="BYvszTVXM_ImxfQw7_0Y-0" />
        <mxCell id="BYvszTVXM_ImxfQw7_0Y-1" parent="BYvszTVXM_ImxfQw7_0Y-0" />
        <mxCell id="BYvszTVXM_ImxfQw7_0Y-2" value="1" style="rounded=1;whiteSpace=wrap;html=1;absoluteArcSize=1;arcSize=30;strokeWidth=2;fontFamily=consolas;fontSize=20;strokeColor=#008FBA;fontColor=#008FBA;fillColor=none;" vertex="1" parent="BYvszTVXM_ImxfQw7_0Y-1">
          <mxGeometry x="240" y="47.5" width="40" height="40" as="geometry" />
        </mxCell>
        <mxCell id="BYvszTVXM_ImxfQw7_0Y-3" value="0" style="rounded=1;whiteSpace=wrap;html=1;absoluteArcSize=1;arcSize=14;strokeWidth=2;fontFamily=consolas;fontSize=20;strokeColor=none;fontColor=#000000;fillColor=none;" vertex="1" parent="BYvszTVXM_ImxfQw7_0Y-1">
          <mxGeometry x="245.81" y="20" width="28.38" height="27.5" as="geometry" />
        </mxCell>
        <mxCell id="BYvszTVXM_ImxfQw7_0Y-4" value="7" style="rounded=1;whiteSpace=wrap;html=1;absoluteArcSize=1;arcSize=30;strokeWidth=2;fontFamily=consolas;fontSize=20;strokeColor=#008FBA;fontColor=#008FBA;fillColor=none;" vertex="1" parent="BYvszTVXM_ImxfQw7_0Y-1">
          <mxGeometry x="290" y="47.5" width="40" height="40" as="geometry" />
        </mxCell>
        <mxCell id="BYvszTVXM_ImxfQw7_0Y-5" value="4" style="rounded=1;whiteSpace=wrap;html=1;absoluteArcSize=1;arcSize=30;strokeWidth=2;fontFamily=consolas;fontSize=20;strokeColor=#008FBA;fontColor=#008FBA;fillColor=none;" vertex="1" parent="BYvszTVXM_ImxfQw7_0Y-1">
          <mxGeometry x="340" y="47.5" width="40" height="40" as="geometry" />
        </mxCell>
        <mxCell id="BYvszTVXM_ImxfQw7_0Y-6" value="0" style="rounded=1;whiteSpace=wrap;html=1;absoluteArcSize=1;arcSize=30;strokeWidth=2;fontFamily=consolas;fontSize=20;strokeColor=#008FBA;fontColor=#008FBA;fillColor=none;" vertex="1" parent="BYvszTVXM_ImxfQw7_0Y-1">
          <mxGeometry x="390" y="47.5" width="40" height="40" as="geometry" />
        </mxCell>
        <mxCell id="BYvszTVXM_ImxfQw7_0Y-7" value="9" style="rounded=1;whiteSpace=wrap;html=1;absoluteArcSize=1;arcSize=30;strokeWidth=2;fontFamily=consolas;fontSize=20;strokeColor=#008FBA;fontColor=#008FBA;fillColor=none;" vertex="1" parent="BYvszTVXM_ImxfQw7_0Y-1">
          <mxGeometry x="440" y="47.5" width="40" height="40" as="geometry" />
        </mxCell>
        <mxCell id="BYvszTVXM_ImxfQw7_0Y-8" value="4" style="rounded=1;whiteSpace=wrap;html=1;absoluteArcSize=1;arcSize=30;strokeWidth=2;fontFamily=consolas;fontSize=20;strokeColor=#008FBA;fontColor=#008FBA;fillColor=none;" vertex="1" parent="BYvszTVXM_ImxfQw7_0Y-1">
          <mxGeometry x="490" y="47.5" width="40" height="40" as="geometry" />
        </mxCell>
        <mxCell id="BYvszTVXM_ImxfQw7_0Y-9" value="8" style="rounded=1;whiteSpace=wrap;html=1;absoluteArcSize=1;arcSize=30;strokeWidth=2;fontFamily=consolas;fontSize=20;strokeColor=#008FBA;fontColor=#008FBA;fillColor=default;" vertex="1" parent="BYvszTVXM_ImxfQw7_0Y-1">
          <mxGeometry x="539.19" y="47.5" width="40" height="40" as="geometry" />
        </mxCell>
        <mxCell id="BYvszTVXM_ImxfQw7_0Y-10" value="1" style="rounded=1;whiteSpace=wrap;html=1;absoluteArcSize=1;arcSize=14;strokeWidth=2;fontFamily=consolas;fontSize=20;strokeColor=none;fontColor=#000000;fillColor=none;" vertex="1" parent="BYvszTVXM_ImxfQw7_0Y-1">
          <mxGeometry x="295.81" y="20" width="28.38" height="27.5" as="geometry" />
        </mxCell>
        <mxCell id="BYvszTVXM_ImxfQw7_0Y-11" value="2" style="rounded=1;whiteSpace=wrap;html=1;absoluteArcSize=1;arcSize=14;strokeWidth=2;fontFamily=consolas;fontSize=20;strokeColor=none;fontColor=#000000;fillColor=none;" vertex="1" parent="BYvszTVXM_ImxfQw7_0Y-1">
          <mxGeometry x="345.81" y="20" width="28.38" height="27.5" as="geometry" />
        </mxCell>
        <mxCell id="BYvszTVXM_ImxfQw7_0Y-12" value="3" style="rounded=1;whiteSpace=wrap;html=1;absoluteArcSize=1;arcSize=14;strokeWidth=2;fontFamily=consolas;fontSize=20;strokeColor=none;fontColor=#000000;fillColor=none;" vertex="1" parent="BYvszTVXM_ImxfQw7_0Y-1">
          <mxGeometry x="395.81" y="20" width="28.38" height="27.5" as="geometry" />
        </mxCell>
        <mxCell id="BYvszTVXM_ImxfQw7_0Y-13" value="4" style="rounded=1;whiteSpace=wrap;html=1;absoluteArcSize=1;arcSize=14;strokeWidth=2;fontFamily=consolas;fontSize=20;strokeColor=none;fontColor=#000000;fillColor=none;" vertex="1" parent="BYvszTVXM_ImxfQw7_0Y-1">
          <mxGeometry x="445.81" y="20" width="28.38" height="27.5" as="geometry" />
        </mxCell>
        <mxCell id="BYvszTVXM_ImxfQw7_0Y-14" value="5" style="rounded=1;whiteSpace=wrap;html=1;absoluteArcSize=1;arcSize=14;strokeWidth=2;fontFamily=consolas;fontSize=20;strokeColor=none;fontColor=#000000;fillColor=none;" vertex="1" parent="BYvszTVXM_ImxfQw7_0Y-1">
          <mxGeometry x="495.81" y="20" width="28.38" height="27.5" as="geometry" />
        </mxCell>
        <mxCell id="BYvszTVXM_ImxfQw7_0Y-15" value="6" style="rounded=1;whiteSpace=wrap;html=1;absoluteArcSize=1;arcSize=14;strokeWidth=2;fontFamily=consolas;fontSize=20;strokeColor=none;fontColor=#000000;fillColor=none;" vertex="1" parent="BYvszTVXM_ImxfQw7_0Y-1">
          <mxGeometry x="545" y="20" width="28.38" height="27.5" as="geometry" />
        </mxCell>
        <mxCell id="BYvszTVXM_ImxfQw7_0Y-16" value="1" style="rounded=1;whiteSpace=wrap;html=1;absoluteArcSize=1;arcSize=30;strokeWidth=2;fontFamily=consolas;fontSize=20;strokeColor=#008FBA;fontColor=#008FBA;fillColor=none;" vertex="1" parent="BYvszTVXM_ImxfQw7_0Y-1">
          <mxGeometry x="240" y="110" width="40" height="40" as="geometry" />
        </mxCell>
        <mxCell id="BYvszTVXM_ImxfQw7_0Y-17" value="7" style="rounded=1;whiteSpace=wrap;html=1;absoluteArcSize=1;arcSize=30;strokeWidth=2;fontFamily=consolas;fontSize=20;strokeColor=#008FBA;fontColor=#008FBA;fillColor=none;" vertex="1" parent="BYvszTVXM_ImxfQw7_0Y-1">
          <mxGeometry x="290" y="110" width="40" height="40" as="geometry" />
        </mxCell>
        <mxCell id="BYvszTVXM_ImxfQw7_0Y-18" value="4" style="rounded=1;whiteSpace=wrap;html=1;absoluteArcSize=1;arcSize=30;strokeWidth=2;fontFamily=consolas;fontSize=20;strokeColor=#008FBA;fontColor=#008FBA;fillColor=none;" vertex="1" parent="BYvszTVXM_ImxfQw7_0Y-1">
          <mxGeometry x="340" y="110" width="40" height="40" as="geometry" />
        </mxCell>
        <mxCell id="BYvszTVXM_ImxfQw7_0Y-19" value="0" style="rounded=1;whiteSpace=wrap;html=1;absoluteArcSize=1;arcSize=30;strokeWidth=2;fontFamily=consolas;fontSize=20;strokeColor=#008FBA;fontColor=#008FBA;fillColor=none;" vertex="1" parent="BYvszTVXM_ImxfQw7_0Y-1">
          <mxGeometry x="390" y="110" width="40" height="40" as="geometry" />
        </mxCell>
        <mxCell id="BYvszTVXM_ImxfQw7_0Y-20" value="9" style="rounded=1;whiteSpace=wrap;html=1;absoluteArcSize=1;arcSize=30;strokeWidth=2;fontFamily=consolas;fontSize=20;strokeColor=#82b366;fillColor=#d5e8d4;" vertex="1" parent="BYvszTVXM_ImxfQw7_0Y-1">
          <mxGeometry x="440" y="110" width="40" height="40" as="geometry" />
        </mxCell>
        <mxCell id="BYvszTVXM_ImxfQw7_0Y-21" value="4" style="rounded=1;whiteSpace=wrap;html=1;absoluteArcSize=1;arcSize=30;strokeWidth=2;fontFamily=consolas;fontSize=20;strokeColor=#008FBA;fontColor=#008FBA;fillColor=none;" vertex="1" parent="BYvszTVXM_ImxfQw7_0Y-1">
          <mxGeometry x="490" y="110" width="40" height="40" as="geometry" />
        </mxCell>
        <mxCell id="BYvszTVXM_ImxfQw7_0Y-22" value="8" style="rounded=1;whiteSpace=wrap;html=1;absoluteArcSize=1;arcSize=30;strokeWidth=2;fontFamily=consolas;fontSize=20;strokeColor=#d6b656;fillColor=#fff2cc;" vertex="1" parent="BYvszTVXM_ImxfQw7_0Y-1">
          <mxGeometry x="539.19" y="110" width="40" height="40" as="geometry" />
        </mxCell>
        <mxCell id="BYvszTVXM_ImxfQw7_0Y-23" value="1" style="rounded=1;whiteSpace=wrap;html=1;absoluteArcSize=1;arcSize=30;strokeWidth=2;fontFamily=consolas;fontSize=20;strokeColor=#008FBA;fontColor=#008FBA;fillColor=none;" vertex="1" parent="BYvszTVXM_ImxfQw7_0Y-1">
          <mxGeometry x="240" y="160" width="40" height="40" as="geometry" />
        </mxCell>
        <mxCell id="BYvszTVXM_ImxfQw7_0Y-24" value="7" style="rounded=1;whiteSpace=wrap;html=1;absoluteArcSize=1;arcSize=30;strokeWidth=2;fontFamily=consolas;fontSize=20;strokeColor=#008FBA;fontColor=#008FBA;fillColor=none;" vertex="1" parent="BYvszTVXM_ImxfQw7_0Y-1">
          <mxGeometry x="290" y="160" width="40" height="40" as="geometry" />
        </mxCell>
        <mxCell id="BYvszTVXM_ImxfQw7_0Y-25" value="4" style="rounded=1;whiteSpace=wrap;html=1;absoluteArcSize=1;arcSize=30;strokeWidth=2;fontFamily=consolas;fontSize=20;strokeColor=#008FBA;fontColor=#008FBA;fillColor=none;" vertex="1" parent="BYvszTVXM_ImxfQw7_0Y-1">
          <mxGeometry x="340" y="160" width="40" height="40" as="geometry" />
        </mxCell>
        <mxCell id="BYvszTVXM_ImxfQw7_0Y-26" value="0" style="rounded=1;whiteSpace=wrap;html=1;absoluteArcSize=1;arcSize=30;strokeWidth=2;fontFamily=consolas;fontSize=20;strokeColor=#008FBA;fontColor=#008FBA;fillColor=none;" vertex="1" parent="BYvszTVXM_ImxfQw7_0Y-1">
          <mxGeometry x="390" y="160" width="40" height="40" as="geometry" />
        </mxCell>
        <mxCell id="BYvszTVXM_ImxfQw7_0Y-27" value="4" style="rounded=1;whiteSpace=wrap;html=1;absoluteArcSize=1;arcSize=30;strokeWidth=2;fontFamily=consolas;fontSize=20;strokeColor=#008FBA;fontColor=#008FBA;fillColor=none;" vertex="1" parent="BYvszTVXM_ImxfQw7_0Y-1">
          <mxGeometry x="440" y="160" width="40" height="40" as="geometry" />
        </mxCell>
        <mxCell id="BYvszTVXM_ImxfQw7_0Y-28" value="9" style="rounded=1;whiteSpace=wrap;html=1;absoluteArcSize=1;arcSize=30;strokeWidth=2;fontFamily=consolas;fontSize=20;strokeColor=#82b366;fillColor=#d5e8d4;" vertex="1" parent="BYvszTVXM_ImxfQw7_0Y-1">
          <mxGeometry x="539.19" y="160" width="40" height="40" as="geometry" />
        </mxCell>
        <mxCell id="BYvszTVXM_ImxfQw7_0Y-29" value="8" style="rounded=1;whiteSpace=wrap;html=1;absoluteArcSize=1;arcSize=30;strokeWidth=2;fontFamily=consolas;fontSize=20;strokeColor=#d6b656;fillColor=#fff2cc;" vertex="1" parent="BYvszTVXM_ImxfQw7_0Y-1">
          <mxGeometry x="490" y="160" width="40" height="40" as="geometry" />
        </mxCell>
        <mxCell id="BYvszTVXM_ImxfQw7_0Y-30" value="1" style="rounded=1;whiteSpace=wrap;html=1;absoluteArcSize=1;arcSize=30;strokeWidth=2;fontFamily=consolas;fontSize=20;strokeColor=#008FBA;fontColor=#008FBA;fillColor=none;" vertex="1" parent="BYvszTVXM_ImxfQw7_0Y-1">
          <mxGeometry x="240" y="220" width="40" height="40" as="geometry" />
        </mxCell>
        <mxCell id="BYvszTVXM_ImxfQw7_0Y-31" value="7" style="rounded=1;whiteSpace=wrap;html=1;absoluteArcSize=1;arcSize=30;strokeWidth=2;fontFamily=consolas;fontSize=20;strokeColor=#82b366;fillColor=#d5e8d4;" vertex="1" parent="BYvszTVXM_ImxfQw7_0Y-1">
          <mxGeometry x="290" y="220" width="40" height="40" as="geometry" />
        </mxCell>
        <mxCell id="BYvszTVXM_ImxfQw7_0Y-32" value="4" style="rounded=1;whiteSpace=wrap;html=1;absoluteArcSize=1;arcSize=30;strokeWidth=2;fontFamily=consolas;fontSize=20;strokeColor=#008FBA;fontColor=#008FBA;fillColor=none;" vertex="1" parent="BYvszTVXM_ImxfQw7_0Y-1">
          <mxGeometry x="340" y="220" width="40" height="40" as="geometry" />
        </mxCell>
        <mxCell id="BYvszTVXM_ImxfQw7_0Y-33" value="0" style="rounded=1;whiteSpace=wrap;html=1;absoluteArcSize=1;arcSize=30;strokeWidth=2;fontFamily=consolas;fontSize=20;strokeColor=#008FBA;fontColor=#008FBA;fillColor=none;" vertex="1" parent="BYvszTVXM_ImxfQw7_0Y-1">
          <mxGeometry x="390" y="220" width="40" height="40" as="geometry" />
        </mxCell>
        <mxCell id="BYvszTVXM_ImxfQw7_0Y-34" value="4" style="rounded=1;whiteSpace=wrap;html=1;absoluteArcSize=1;arcSize=30;strokeWidth=2;fontFamily=consolas;fontSize=20;strokeColor=#d6b656;fillColor=#fff2cc;" vertex="1" parent="BYvszTVXM_ImxfQw7_0Y-1">
          <mxGeometry x="440" y="220" width="40" height="40" as="geometry" />
        </mxCell>
        <mxCell id="BYvszTVXM_ImxfQw7_0Y-35" value="1" style="rounded=1;whiteSpace=wrap;html=1;absoluteArcSize=1;arcSize=30;strokeWidth=2;fontFamily=consolas;fontSize=20;strokeColor=#008FBA;fontColor=#008FBA;fillColor=none;" vertex="1" parent="BYvszTVXM_ImxfQw7_0Y-1">
          <mxGeometry x="240" y="270" width="40" height="40" as="geometry" />
        </mxCell>
        <mxCell id="BYvszTVXM_ImxfQw7_0Y-36" value="7" style="rounded=1;whiteSpace=wrap;html=1;absoluteArcSize=1;arcSize=30;strokeWidth=2;fontFamily=consolas;fontSize=20;strokeColor=#82b366;fillColor=#d5e8d4;" vertex="1" parent="BYvszTVXM_ImxfQw7_0Y-1">
          <mxGeometry x="440" y="270" width="40" height="40" as="geometry" />
        </mxCell>
        <mxCell id="BYvszTVXM_ImxfQw7_0Y-37" value="4" style="rounded=1;whiteSpace=wrap;html=1;absoluteArcSize=1;arcSize=30;strokeWidth=2;fontFamily=consolas;fontSize=20;strokeColor=#008FBA;fontColor=#008FBA;fillColor=none;" vertex="1" parent="BYvszTVXM_ImxfQw7_0Y-1">
          <mxGeometry x="290" y="270" width="40" height="40" as="geometry" />
        </mxCell>
        <mxCell id="BYvszTVXM_ImxfQw7_0Y-38" value="0" style="rounded=1;whiteSpace=wrap;html=1;absoluteArcSize=1;arcSize=30;strokeWidth=2;fontFamily=consolas;fontSize=20;strokeColor=#008FBA;fontColor=#008FBA;fillColor=none;" vertex="1" parent="BYvszTVXM_ImxfQw7_0Y-1">
          <mxGeometry x="340" y="270" width="40" height="40" as="geometry" />
        </mxCell>
        <mxCell id="BYvszTVXM_ImxfQw7_0Y-39" value="4" style="rounded=1;whiteSpace=wrap;html=1;absoluteArcSize=1;arcSize=30;strokeWidth=2;fontFamily=consolas;fontSize=20;strokeColor=#d6b656;fillColor=#fff2cc;" vertex="1" parent="BYvszTVXM_ImxfQw7_0Y-1">
          <mxGeometry x="390" y="270" width="40" height="40" as="geometry" />
        </mxCell>
        <mxCell id="BYvszTVXM_ImxfQw7_0Y-40" value="1" style="rounded=1;whiteSpace=wrap;html=1;absoluteArcSize=1;arcSize=30;strokeWidth=2;fontFamily=consolas;fontSize=20;strokeColor=#82b366;fillColor=#d5e8d4;" vertex="1" parent="BYvszTVXM_ImxfQw7_0Y-1">
          <mxGeometry x="240" y="330" width="40" height="40" as="geometry" />
        </mxCell>
        <mxCell id="BYvszTVXM_ImxfQw7_0Y-41" value="4" style="rounded=1;whiteSpace=wrap;html=1;absoluteArcSize=1;arcSize=30;strokeWidth=2;fontFamily=consolas;fontSize=20;strokeColor=#82b366;fillColor=#d5e8d4;" vertex="1" parent="BYvszTVXM_ImxfQw7_0Y-1">
          <mxGeometry x="290" y="330" width="40" height="40" as="geometry" />
        </mxCell>
        <mxCell id="BYvszTVXM_ImxfQw7_0Y-42" value="0" style="rounded=1;whiteSpace=wrap;html=1;absoluteArcSize=1;arcSize=30;strokeWidth=2;fontFamily=consolas;fontSize=20;strokeColor=#d6b656;fillColor=#fff2cc;" vertex="1" parent="BYvszTVXM_ImxfQw7_0Y-1">
          <mxGeometry x="340" y="330" width="40" height="40" as="geometry" />
        </mxCell>
        <mxCell id="BYvszTVXM_ImxfQw7_0Y-43" value="0" style="rounded=1;whiteSpace=wrap;html=1;absoluteArcSize=1;arcSize=30;strokeWidth=2;fontFamily=consolas;fontSize=20;strokeColor=#d6b656;fillColor=#fff2cc;" vertex="1" parent="BYvszTVXM_ImxfQw7_0Y-1">
          <mxGeometry x="240" y="380" width="40" height="40" as="geometry" />
        </mxCell>
        <mxCell id="BYvszTVXM_ImxfQw7_0Y-44" value="1" style="rounded=1;whiteSpace=wrap;html=1;absoluteArcSize=1;arcSize=30;strokeWidth=2;fontFamily=consolas;fontSize=20;strokeColor=#82b366;fillColor=#d5e8d4;" vertex="1" parent="BYvszTVXM_ImxfQw7_0Y-1">
          <mxGeometry x="340" y="380" width="40" height="40" as="geometry" />
        </mxCell>
        <mxCell id="BYvszTVXM_ImxfQw7_0Y-45" value="4" style="rounded=1;whiteSpace=wrap;html=1;absoluteArcSize=1;arcSize=30;strokeWidth=2;fontFamily=consolas;fontSize=20;strokeColor=#82b366;fillColor=#d5e8d4;" vertex="1" parent="BYvszTVXM_ImxfQw7_0Y-1">
          <mxGeometry x="290" y="380" width="40" height="40" as="geometry" />
        </mxCell>
        <mxCell id="BYvszTVXM_ImxfQw7_0Y-46" value="4" style="rounded=1;whiteSpace=wrap;html=1;absoluteArcSize=1;arcSize=30;strokeWidth=2;fontFamily=consolas;fontSize=20;strokeColor=#82b366;fillColor=#d5e8d4;" vertex="1" parent="BYvszTVXM_ImxfQw7_0Y-1">
          <mxGeometry x="290" y="440" width="40" height="40" as="geometry" />
        </mxCell>
        <mxCell id="BYvszTVXM_ImxfQw7_0Y-47" value="0" style="rounded=1;whiteSpace=wrap;html=1;absoluteArcSize=1;arcSize=30;strokeWidth=1;fontFamily=consolas;fontSize=20;strokeColor=#666666;fillColor=#f5f5f5;fontColor=#333333;" vertex="1" parent="BYvszTVXM_ImxfQw7_0Y-1">
          <mxGeometry x="240" y="440" width="40" height="40" as="geometry" />
        </mxCell>
        <mxCell id="BYvszTVXM_ImxfQw7_0Y-48" value="0" style="rounded=1;whiteSpace=wrap;html=1;absoluteArcSize=1;arcSize=30;strokeWidth=1;fontFamily=consolas;fontSize=20;strokeColor=#666666;fillColor=#f5f5f5;fontColor=#333333;" vertex="1" parent="BYvszTVXM_ImxfQw7_0Y-1">
          <mxGeometry x="240" y="490" width="40" height="40" as="geometry" />
        </mxCell>
        <mxCell id="BYvszTVXM_ImxfQw7_0Y-49" value="1" style="rounded=1;whiteSpace=wrap;html=1;absoluteArcSize=1;arcSize=30;strokeWidth=2;fontFamily=consolas;fontSize=20;strokeColor=#d6b656;fillColor=#fff2cc;" vertex="1" parent="BYvszTVXM_ImxfQw7_0Y-1">
          <mxGeometry x="290" y="490" width="40" height="40" as="geometry" />
        </mxCell>
        <mxCell id="BYvszTVXM_ImxfQw7_0Y-50" value="Phân hoạch với pivot = 8" style="rounded=1;whiteSpace=wrap;html=1;absoluteArcSize=1;arcSize=14;strokeWidth=2;fontFamily=Times New Roman;fontSize=20;strokeColor=none;fontColor=#000000;fillColor=none;movable=1;resizable=1;rotatable=1;deletable=1;editable=1;locked=0;connectable=1;align=left;" vertex="1" parent="BYvszTVXM_ImxfQw7_0Y-1">
          <mxGeometry x="10" y="110" width="210" height="40" as="geometry" />
        </mxCell>
        <mxCell id="BYvszTVXM_ImxfQw7_0Y-51" value="Phân hoạch với pivot = 4" style="rounded=1;whiteSpace=wrap;html=1;absoluteArcSize=1;arcSize=14;strokeWidth=2;fontFamily=Times New Roman;fontSize=20;strokeColor=none;fontColor=#000000;fillColor=none;movable=1;resizable=1;rotatable=1;deletable=1;editable=1;locked=0;connectable=1;align=left;" vertex="1" parent="BYvszTVXM_ImxfQw7_0Y-1">
          <mxGeometry x="10" y="220" width="210" height="40" as="geometry" />
        </mxCell>
        <mxCell id="BYvszTVXM_ImxfQw7_0Y-52" value="Phân hoạch với pivot = 0" style="rounded=1;whiteSpace=wrap;html=1;absoluteArcSize=1;arcSize=14;strokeWidth=2;fontFamily=Times New Roman;fontSize=20;strokeColor=none;fontColor=#000000;fillColor=none;movable=1;resizable=1;rotatable=1;deletable=1;editable=1;locked=0;connectable=1;align=left;" vertex="1" parent="BYvszTVXM_ImxfQw7_0Y-1">
          <mxGeometry x="10" y="330" width="210" height="40" as="geometry" />
        </mxCell>
        <mxCell id="BYvszTVXM_ImxfQw7_0Y-53" value="Phân hoạch với pivot = 1" style="rounded=1;whiteSpace=wrap;html=1;absoluteArcSize=1;arcSize=14;strokeWidth=2;fontFamily=Times New Roman;fontSize=20;strokeColor=none;fontColor=#000000;fillColor=none;movable=1;resizable=1;rotatable=1;deletable=1;editable=1;locked=0;connectable=1;align=left;" vertex="1" parent="BYvszTVXM_ImxfQw7_0Y-1">
          <mxGeometry x="10" y="440" width="210" height="40" as="geometry" />
        </mxCell>
        <mxCell id="keifvdDItM-VVsvDStQb-0" value="9" style="rounded=1;whiteSpace=wrap;html=1;absoluteArcSize=1;arcSize=30;strokeWidth=1;fontFamily=consolas;fontSize=20;strokeColor=#666666;fontColor=#333333;fillColor=#f5f5f5;" vertex="1" parent="BYvszTVXM_ImxfQw7_0Y-1">
          <mxGeometry x="539.19" y="220" width="40" height="40" as="geometry" />
        </mxCell>
        <mxCell id="keifvdDItM-VVsvDStQb-1" value="8" style="rounded=1;whiteSpace=wrap;html=1;absoluteArcSize=1;arcSize=30;strokeWidth=1;fontFamily=consolas;fontSize=20;strokeColor=#666666;fontColor=#333333;fillColor=#f5f5f5;" vertex="1" parent="BYvszTVXM_ImxfQw7_0Y-1">
          <mxGeometry x="490" y="220" width="40" height="40" as="geometry" />
        </mxCell>
        <mxCell id="keifvdDItM-VVsvDStQb-2" value="9" style="rounded=1;whiteSpace=wrap;html=1;absoluteArcSize=1;arcSize=30;strokeWidth=1;fontFamily=consolas;fontSize=20;strokeColor=#666666;fontColor=#333333;fillColor=#f5f5f5;" vertex="1" parent="BYvszTVXM_ImxfQw7_0Y-1">
          <mxGeometry x="539.19" y="270" width="40" height="40" as="geometry" />
        </mxCell>
        <mxCell id="keifvdDItM-VVsvDStQb-3" value="8" style="rounded=1;whiteSpace=wrap;html=1;absoluteArcSize=1;arcSize=30;strokeWidth=1;fontFamily=consolas;fontSize=20;strokeColor=#666666;fontColor=#333333;fillColor=#f5f5f5;" vertex="1" parent="BYvszTVXM_ImxfQw7_0Y-1">
          <mxGeometry x="490" y="270" width="40" height="40" as="geometry" />
        </mxCell>
        <mxCell id="keifvdDItM-VVsvDStQb-4" value="7" style="rounded=1;whiteSpace=wrap;html=1;absoluteArcSize=1;arcSize=30;strokeWidth=1;fontFamily=consolas;fontSize=20;strokeColor=#666666;fontColor=#333333;fillColor=#f5f5f5;" vertex="1" parent="BYvszTVXM_ImxfQw7_0Y-1">
          <mxGeometry x="440" y="330" width="40" height="40" as="geometry" />
        </mxCell>
        <mxCell id="keifvdDItM-VVsvDStQb-5" value="4" style="rounded=1;whiteSpace=wrap;html=1;absoluteArcSize=1;arcSize=30;strokeWidth=1;fontFamily=consolas;fontSize=20;strokeColor=#666666;fontColor=#333333;fillColor=#f5f5f5;" vertex="1" parent="BYvszTVXM_ImxfQw7_0Y-1">
          <mxGeometry x="390" y="330" width="40" height="40" as="geometry" />
        </mxCell>
        <mxCell id="keifvdDItM-VVsvDStQb-6" value="9" style="rounded=1;whiteSpace=wrap;html=1;absoluteArcSize=1;arcSize=30;strokeWidth=1;fontFamily=consolas;fontSize=20;strokeColor=#666666;fontColor=#333333;fillColor=#f5f5f5;" vertex="1" parent="BYvszTVXM_ImxfQw7_0Y-1">
          <mxGeometry x="539.19" y="330" width="40" height="40" as="geometry" />
        </mxCell>
        <mxCell id="keifvdDItM-VVsvDStQb-7" value="8" style="rounded=1;whiteSpace=wrap;html=1;absoluteArcSize=1;arcSize=30;strokeWidth=1;fontFamily=consolas;fontSize=20;strokeColor=#666666;fontColor=#333333;fillColor=#f5f5f5;" vertex="1" parent="BYvszTVXM_ImxfQw7_0Y-1">
          <mxGeometry x="490" y="330" width="40" height="40" as="geometry" />
        </mxCell>
        <mxCell id="keifvdDItM-VVsvDStQb-8" value="7" style="rounded=1;whiteSpace=wrap;html=1;absoluteArcSize=1;arcSize=30;strokeWidth=1;fontFamily=consolas;fontSize=20;strokeColor=#666666;fontColor=#333333;fillColor=#f5f5f5;" vertex="1" parent="BYvszTVXM_ImxfQw7_0Y-1">
          <mxGeometry x="440" y="380" width="40" height="40" as="geometry" />
        </mxCell>
        <mxCell id="keifvdDItM-VVsvDStQb-9" value="4" style="rounded=1;whiteSpace=wrap;html=1;absoluteArcSize=1;arcSize=30;strokeWidth=1;fontFamily=consolas;fontSize=20;strokeColor=#666666;fontColor=#333333;fillColor=#f5f5f5;" vertex="1" parent="BYvszTVXM_ImxfQw7_0Y-1">
          <mxGeometry x="390" y="380" width="40" height="40" as="geometry" />
        </mxCell>
        <mxCell id="keifvdDItM-VVsvDStQb-10" value="9" style="rounded=1;whiteSpace=wrap;html=1;absoluteArcSize=1;arcSize=30;strokeWidth=1;fontFamily=consolas;fontSize=20;strokeColor=#666666;fontColor=#333333;fillColor=#f5f5f5;" vertex="1" parent="BYvszTVXM_ImxfQw7_0Y-1">
          <mxGeometry x="539.19" y="380" width="40" height="40" as="geometry" />
        </mxCell>
        <mxCell id="keifvdDItM-VVsvDStQb-11" value="8" style="rounded=1;whiteSpace=wrap;html=1;absoluteArcSize=1;arcSize=30;strokeWidth=1;fontFamily=consolas;fontSize=20;strokeColor=#666666;fontColor=#333333;fillColor=#f5f5f5;" vertex="1" parent="BYvszTVXM_ImxfQw7_0Y-1">
          <mxGeometry x="490" y="380" width="40" height="40" as="geometry" />
        </mxCell>
        <mxCell id="keifvdDItM-VVsvDStQb-12" value="1" style="rounded=1;whiteSpace=wrap;html=1;absoluteArcSize=1;arcSize=30;strokeWidth=2;fontFamily=consolas;fontSize=20;strokeColor=#d6b656;fillColor=#fff2cc;" vertex="1" parent="BYvszTVXM_ImxfQw7_0Y-1">
          <mxGeometry x="340" y="440" width="40" height="40" as="geometry" />
        </mxCell>
        <mxCell id="keifvdDItM-VVsvDStQb-13" value="7" style="rounded=1;whiteSpace=wrap;html=1;absoluteArcSize=1;arcSize=30;strokeWidth=1;fontFamily=consolas;fontSize=20;strokeColor=#666666;fontColor=#333333;fillColor=#f5f5f5;" vertex="1" parent="BYvszTVXM_ImxfQw7_0Y-1">
          <mxGeometry x="440" y="440" width="40" height="40" as="geometry" />
        </mxCell>
        <mxCell id="keifvdDItM-VVsvDStQb-14" value="4" style="rounded=1;whiteSpace=wrap;html=1;absoluteArcSize=1;arcSize=30;strokeWidth=1;fontFamily=consolas;fontSize=20;strokeColor=#666666;fontColor=#333333;fillColor=#f5f5f5;" vertex="1" parent="BYvszTVXM_ImxfQw7_0Y-1">
          <mxGeometry x="390" y="440" width="40" height="40" as="geometry" />
        </mxCell>
        <mxCell id="keifvdDItM-VVsvDStQb-15" value="9" style="rounded=1;whiteSpace=wrap;html=1;absoluteArcSize=1;arcSize=30;strokeWidth=1;fontFamily=consolas;fontSize=20;strokeColor=#666666;fontColor=#333333;fillColor=#f5f5f5;" vertex="1" parent="BYvszTVXM_ImxfQw7_0Y-1">
          <mxGeometry x="539.19" y="440" width="40" height="40" as="geometry" />
        </mxCell>
        <mxCell id="keifvdDItM-VVsvDStQb-16" value="8" style="rounded=1;whiteSpace=wrap;html=1;absoluteArcSize=1;arcSize=30;strokeWidth=1;fontFamily=consolas;fontSize=20;strokeColor=#666666;fontColor=#333333;fillColor=#f5f5f5;" vertex="1" parent="BYvszTVXM_ImxfQw7_0Y-1">
          <mxGeometry x="490" y="440" width="40" height="40" as="geometry" />
        </mxCell>
        <mxCell id="keifvdDItM-VVsvDStQb-17" value="4" style="rounded=1;whiteSpace=wrap;html=1;absoluteArcSize=1;arcSize=30;strokeWidth=1;fontFamily=consolas;fontSize=20;strokeColor=#82b366;fillColor=#d5e8d4;" vertex="1" parent="BYvszTVXM_ImxfQw7_0Y-1">
          <mxGeometry x="340" y="490" width="40" height="40" as="geometry" />
        </mxCell>
        <mxCell id="keifvdDItM-VVsvDStQb-18" value="7" style="rounded=1;whiteSpace=wrap;html=1;absoluteArcSize=1;arcSize=30;strokeWidth=1;fontFamily=consolas;fontSize=20;strokeColor=#666666;fontColor=#333333;fillColor=#f5f5f5;" vertex="1" parent="BYvszTVXM_ImxfQw7_0Y-1">
          <mxGeometry x="440" y="490" width="40" height="40" as="geometry" />
        </mxCell>
        <mxCell id="keifvdDItM-VVsvDStQb-19" value="4" style="rounded=1;whiteSpace=wrap;html=1;absoluteArcSize=1;arcSize=30;strokeWidth=1;fontFamily=consolas;fontSize=20;strokeColor=#666666;fontColor=#333333;fillColor=#f5f5f5;" vertex="1" parent="BYvszTVXM_ImxfQw7_0Y-1">
          <mxGeometry x="390" y="490" width="40" height="40" as="geometry" />
        </mxCell>
        <mxCell id="keifvdDItM-VVsvDStQb-20" value="9" style="rounded=1;whiteSpace=wrap;html=1;absoluteArcSize=1;arcSize=30;strokeWidth=1;fontFamily=consolas;fontSize=20;strokeColor=#666666;fontColor=#333333;fillColor=#f5f5f5;" vertex="1" parent="BYvszTVXM_ImxfQw7_0Y-1">
          <mxGeometry x="539.19" y="490" width="40" height="40" as="geometry" />
        </mxCell>
        <mxCell id="keifvdDItM-VVsvDStQb-21" value="8" style="rounded=1;whiteSpace=wrap;html=1;absoluteArcSize=1;arcSize=30;strokeWidth=1;fontFamily=consolas;fontSize=20;strokeColor=#666666;fontColor=#333333;fillColor=#f5f5f5;" vertex="1" parent="BYvszTVXM_ImxfQw7_0Y-1">
          <mxGeometry x="490" y="490" width="40" height="40" as="geometry" />
        </mxCell>
      </root>
    </mxGraphModel>
  </diagram>
</mxfile>
